G75*
%MOIN*%
%OFA0B0*%
%FSLAX24Y24*%
%IPPOS*%
%LPD*%
%AMOC8*
5,1,8,0,0,1.08239X$1,22.5*
%
%ADD10C,0.0040*%
%ADD11C,0.0050*%
%ADD12C,0.0080*%
%ADD13R,0.0337X0.0000*%
%ADD14R,0.0337X0.0000*%
%ADD15R,0.0344X0.0001*%
%ADD16R,0.0348X0.0000*%
%ADD17R,0.0347X0.0000*%
%ADD18R,0.0350X0.0000*%
%ADD19R,0.0350X0.0000*%
%ADD20R,0.0352X0.0001*%
%ADD21R,0.0355X0.0000*%
%ADD22R,0.0354X0.0000*%
%ADD23R,0.0356X0.0001*%
%ADD24R,0.0359X0.0000*%
%ADD25R,0.0360X0.0000*%
%ADD26R,0.0361X0.0001*%
%ADD27R,0.0363X0.0000*%
%ADD28R,0.0362X0.0000*%
%ADD29R,0.0365X0.0001*%
%ADD30R,0.0364X0.0001*%
%ADD31R,0.0365X0.0000*%
%ADD32R,0.0366X0.0000*%
%ADD33R,0.0366X0.0000*%
%ADD34R,0.0367X0.0001*%
%ADD35R,0.0369X0.0000*%
%ADD36R,0.0370X0.0001*%
%ADD37R,0.0369X0.0001*%
%ADD38R,0.0370X0.0000*%
%ADD39R,0.0371X0.0000*%
%ADD40R,0.0371X0.0000*%
%ADD41R,0.0372X0.0001*%
%ADD42R,0.0372X0.0001*%
%ADD43R,0.0373X0.0000*%
%ADD44R,0.0373X0.0000*%
%ADD45R,0.0374X0.0001*%
%ADD46R,0.0374X0.0001*%
%ADD47R,0.0375X0.0000*%
%ADD48R,0.0374X0.0000*%
%ADD49R,0.0375X0.0000*%
%ADD50R,0.0375X0.0000*%
%ADD51R,0.0375X0.0001*%
%ADD52R,0.0376X0.0001*%
%ADD53R,0.0376X0.0000*%
%ADD54R,0.0377X0.0001*%
%ADD55R,0.0376X0.0001*%
%ADD56R,0.0377X0.0000*%
%ADD57R,0.0378X0.0000*%
%ADD58R,0.0378X0.0000*%
%ADD59R,0.0379X0.0001*%
%ADD60R,0.0379X0.0000*%
%ADD61R,0.0379X0.0000*%
%ADD62R,0.0380X0.0001*%
%ADD63R,0.0379X0.0001*%
%ADD64R,0.0380X0.0000*%
%ADD65R,0.0379X0.0000*%
%ADD66R,0.0380X0.0000*%
%ADD67R,0.0380X0.0000*%
%ADD68R,0.0380X0.0001*%
%ADD69R,0.0381X0.0001*%
%ADD70R,0.0381X0.0000*%
%ADD71R,0.0381X0.0001*%
%ADD72R,0.0381X0.0001*%
%ADD73R,0.0381X0.0000*%
%ADD74R,0.0382X0.0001*%
%ADD75R,0.0381X0.0001*%
%ADD76R,0.0382X0.0000*%
%ADD77R,0.0382X0.0000*%
%ADD78R,0.0382X0.0001*%
%ADD79R,0.0382X0.0000*%
%ADD80R,0.0383X0.0000*%
%ADD81R,0.0383X0.0001*%
%ADD82R,0.0383X0.0001*%
%ADD83R,0.0383X0.0000*%
%ADD84R,0.0382X0.0001*%
%ADD85R,0.0379X0.0001*%
%ADD86R,0.0381X0.0000*%
%ADD87R,0.0378X0.0001*%
%ADD88R,0.0377X0.0000*%
%ADD89R,0.0376X0.0000*%
%ADD90R,0.0374X0.0000*%
%ADD91R,0.0377X0.0001*%
%ADD92R,0.0372X0.0000*%
%ADD93R,0.0371X0.0001*%
%ADD94R,0.0376X0.0001*%
%ADD95R,0.0371X0.0000*%
%ADD96R,0.0376X0.0000*%
%ADD97R,0.0370X0.0000*%
%ADD98R,0.0369X0.0001*%
%ADD99R,0.0374X0.0001*%
%ADD100R,0.0368X0.0000*%
%ADD101R,0.0374X0.0000*%
%ADD102R,0.0367X0.0001*%
%ADD103R,0.0373X0.0001*%
%ADD104R,0.0366X0.0000*%
%ADD105R,0.0372X0.0000*%
%ADD106R,0.0365X0.0000*%
%ADD107R,0.0371X0.0000*%
%ADD108R,0.0364X0.0001*%
%ADD109R,0.0371X0.0001*%
%ADD110R,0.0362X0.0000*%
%ADD111R,0.0369X0.0000*%
%ADD112R,0.0360X0.0001*%
%ADD113R,0.0369X0.0001*%
%ADD114R,0.0359X0.0000*%
%ADD115R,0.0367X0.0000*%
%ADD116R,0.0357X0.0000*%
%ADD117R,0.0355X0.0001*%
%ADD118R,0.0365X0.0001*%
%ADD119R,0.0354X0.0000*%
%ADD120R,0.0364X0.0000*%
%ADD121R,0.0351X0.0001*%
%ADD122R,0.0363X0.0001*%
%ADD123R,0.0348X0.0000*%
%ADD124R,0.0361X0.0000*%
%ADD125R,0.0345X0.0000*%
%ADD126R,0.0340X0.0001*%
%ADD127R,0.0359X0.0001*%
%ADD128R,0.0258X0.0000*%
%ADD129R,0.0356X0.0000*%
%ADD130R,0.0257X0.0001*%
%ADD131R,0.0354X0.0001*%
%ADD132R,0.0257X0.0000*%
%ADD133R,0.0352X0.0000*%
%ADD134R,0.0347X0.0001*%
%ADD135R,0.0257X0.0000*%
%ADD136R,0.0344X0.0000*%
%ADD137R,0.0257X0.0001*%
%ADD138R,0.0338X0.0001*%
%ADD139R,0.0239X0.0000*%
%ADD140R,0.0256X0.0000*%
%ADD141R,0.0256X0.0001*%
%ADD142R,0.0239X0.0001*%
%ADD143R,0.0239X0.0001*%
%ADD144R,0.0256X0.0000*%
%ADD145R,0.0239X0.0000*%
%ADD146R,0.0256X0.0001*%
%ADD147R,0.0255X0.0000*%
%ADD148R,0.0238X0.0000*%
%ADD149R,0.0255X0.0001*%
%ADD150R,0.0238X0.0001*%
%ADD151R,0.0255X0.0000*%
%ADD152R,0.0255X0.0001*%
%ADD153R,0.0238X0.0001*%
%ADD154R,0.0238X0.0000*%
%ADD155R,0.0255X0.0000*%
%ADD156R,0.0238X0.0000*%
%ADD157R,0.0255X0.0001*%
%ADD158R,0.0238X0.0001*%
%ADD159R,0.0254X0.0000*%
%ADD160R,0.0254X0.0001*%
%ADD161R,0.0237X0.0000*%
%ADD162R,0.0254X0.0001*%
%ADD163R,0.0237X0.0001*%
%ADD164R,0.0254X0.0000*%
%ADD165R,0.0253X0.0000*%
%ADD166R,0.0236X0.0000*%
%ADD167R,0.0253X0.0001*%
%ADD168R,0.0236X0.0001*%
%ADD169R,0.0253X0.0000*%
%ADD170R,0.0253X0.0001*%
%ADD171R,0.0236X0.0001*%
%ADD172R,0.0236X0.0000*%
%ADD173R,0.0252X0.0001*%
%ADD174R,0.0252X0.0000*%
%ADD175R,0.0235X0.0000*%
%ADD176R,0.0235X0.0001*%
%ADD177R,0.0251X0.0000*%
%ADD178R,0.0251X0.0001*%
%ADD179R,0.0235X0.0001*%
%ADD180R,0.0235X0.0000*%
%ADD181R,0.0251X0.0001*%
%ADD182R,0.0251X0.0000*%
%ADD183R,0.0234X0.0000*%
%ADD184R,0.0250X0.0001*%
%ADD185R,0.0234X0.0001*%
%ADD186R,0.0250X0.0000*%
%ADD187R,0.0250X0.0000*%
%ADD188R,0.0234X0.0000*%
%ADD189R,0.0250X0.0001*%
%ADD190R,0.0234X0.0001*%
%ADD191R,0.0250X0.0001*%
%ADD192R,0.0250X0.0000*%
%ADD193R,0.0233X0.0000*%
%ADD194R,0.0249X0.0001*%
%ADD195R,0.0233X0.0001*%
%ADD196R,0.0249X0.0000*%
%ADD197R,0.0233X0.0001*%
%ADD198R,0.0233X0.0000*%
%ADD199R,0.0249X0.0000*%
%ADD200R,0.0249X0.0001*%
%ADD201R,0.0232X0.0000*%
%ADD202R,0.0248X0.0001*%
%ADD203R,0.0232X0.0001*%
%ADD204R,0.0248X0.0000*%
%ADD205R,0.0248X0.0001*%
%ADD206R,0.0232X0.0001*%
%ADD207R,0.0248X0.0000*%
%ADD208R,0.0232X0.0000*%
%ADD209R,0.0247X0.0000*%
%ADD210R,0.0231X0.0000*%
%ADD211R,0.0247X0.0001*%
%ADD212R,0.0231X0.0001*%
%ADD213R,0.0246X0.0001*%
%ADD214R,0.0246X0.0000*%
%ADD215R,0.0231X0.0000*%
%ADD216R,0.0231X0.0001*%
%ADD217R,0.0246X0.0000*%
%ADD218R,0.0246X0.0001*%
%ADD219R,0.0230X0.0000*%
%ADD220R,0.0245X0.0000*%
%ADD221R,0.0245X0.0001*%
%ADD222R,0.0230X0.0001*%
%ADD223R,0.0245X0.0001*%
%ADD224R,0.0230X0.0001*%
%ADD225R,0.0245X0.0000*%
%ADD226R,0.0230X0.0000*%
%ADD227R,0.0245X0.0000*%
%ADD228R,0.0229X0.0000*%
%ADD229R,0.0245X0.0001*%
%ADD230R,0.0229X0.0001*%
%ADD231R,0.0244X0.0000*%
%ADD232R,0.0244X0.0001*%
%ADD233R,0.0229X0.0001*%
%ADD234R,0.0229X0.0000*%
%ADD235R,0.0244X0.0000*%
%ADD236R,0.0228X0.0000*%
%ADD237R,0.0244X0.0001*%
%ADD238R,0.0228X0.0001*%
%ADD239R,0.0243X0.0000*%
%ADD240R,0.0243X0.0001*%
%ADD241R,0.0243X0.0000*%
%ADD242R,0.0228X0.0000*%
%ADD243R,0.0243X0.0001*%
%ADD244R,0.0228X0.0001*%
%ADD245R,0.0242X0.0000*%
%ADD246R,0.0227X0.0000*%
%ADD247R,0.0242X0.0001*%
%ADD248R,0.0227X0.0001*%
%ADD249R,0.0241X0.0000*%
%ADD250R,0.0241X0.0001*%
%ADD251R,0.0227X0.0001*%
%ADD252R,0.0227X0.0000*%
%ADD253R,0.0241X0.0001*%
%ADD254R,0.0241X0.0000*%
%ADD255R,0.0226X0.0000*%
%ADD256R,0.0226X0.0001*%
%ADD257R,0.0240X0.0000*%
%ADD258R,0.0240X0.0001*%
%ADD259R,0.0226X0.0001*%
%ADD260R,0.0240X0.0000*%
%ADD261R,0.0226X0.0000*%
%ADD262R,0.0240X0.0001*%
%ADD263R,0.0225X0.0000*%
%ADD264R,0.0240X0.0001*%
%ADD265R,0.0225X0.0001*%
%ADD266R,0.0240X0.0000*%
%ADD267R,0.0225X0.0000*%
%ADD268R,0.0225X0.0001*%
%ADD269R,0.0239X0.0001*%
%ADD270R,0.0239X0.0000*%
%ADD271R,0.0224X0.0000*%
%ADD272R,0.0224X0.0001*%
%ADD273R,0.0224X0.0001*%
%ADD274R,0.0224X0.0000*%
%ADD275R,0.0223X0.0000*%
%ADD276R,0.0237X0.0001*%
%ADD277R,0.0223X0.0001*%
%ADD278R,0.0237X0.0000*%
%ADD279R,0.0223X0.0001*%
%ADD280R,0.0223X0.0000*%
%ADD281R,0.0236X0.0000*%
%ADD282R,0.0222X0.0000*%
%ADD283R,0.0236X0.0001*%
%ADD284R,0.0222X0.0001*%
%ADD285R,0.0222X0.0000*%
%ADD286R,0.0222X0.0001*%
%ADD287R,0.0221X0.0000*%
%ADD288R,0.0235X0.0000*%
%ADD289R,0.0235X0.0001*%
%ADD290R,0.0221X0.0001*%
%ADD291R,0.0221X0.0001*%
%ADD292R,0.0221X0.0000*%
%ADD293R,0.0234X0.0000*%
%ADD294R,0.0220X0.0000*%
%ADD295R,0.0234X0.0001*%
%ADD296R,0.0220X0.0001*%
%ADD297R,0.0220X0.0001*%
%ADD298R,0.0220X0.0000*%
%ADD299R,0.0219X0.0000*%
%ADD300R,0.0219X0.0001*%
%ADD301R,0.0232X0.0000*%
%ADD302R,0.0232X0.0001*%
%ADD303R,0.0219X0.0000*%
%ADD304R,0.0219X0.0001*%
%ADD305R,0.0231X0.0000*%
%ADD306R,0.0218X0.0000*%
%ADD307R,0.0231X0.0001*%
%ADD308R,0.0218X0.0001*%
%ADD309R,0.0218X0.0001*%
%ADD310R,0.0218X0.0000*%
%ADD311R,0.0217X0.0000*%
%ADD312R,0.0217X0.0001*%
%ADD313R,0.0230X0.0000*%
%ADD314R,0.0230X0.0001*%
%ADD315R,0.0217X0.0001*%
%ADD316R,0.0217X0.0000*%
%ADD317R,0.0216X0.0000*%
%ADD318R,0.0229X0.0001*%
%ADD319R,0.0216X0.0001*%
%ADD320R,0.0229X0.0000*%
%ADD321R,0.0216X0.0000*%
%ADD322R,0.0216X0.0001*%
%ADD323R,0.0215X0.0000*%
%ADD324R,0.0227X0.0001*%
%ADD325R,0.0215X0.0001*%
%ADD326R,0.0227X0.0000*%
%ADD327R,0.0215X0.0001*%
%ADD328R,0.0215X0.0000*%
%ADD329R,0.0214X0.0000*%
%ADD330R,0.0226X0.0001*%
%ADD331R,0.0214X0.0001*%
%ADD332R,0.0226X0.0000*%
%ADD333R,0.0214X0.0001*%
%ADD334R,0.0214X0.0000*%
%ADD335R,0.0213X0.0000*%
%ADD336R,0.0213X0.0001*%
%ADD337R,0.0225X0.0001*%
%ADD338R,0.0225X0.0000*%
%ADD339R,0.0213X0.0000*%
%ADD340R,0.0213X0.0001*%
%ADD341R,0.0213X0.0000*%
%ADD342R,0.0224X0.0000*%
%ADD343R,0.0224X0.0001*%
%ADD344R,0.0213X0.0001*%
%ADD345R,0.0212X0.0001*%
%ADD346R,0.0212X0.0000*%
%ADD347R,0.0211X0.0000*%
%ADD348R,0.0211X0.0001*%
%ADD349R,0.0222X0.0000*%
%ADD350R,0.0222X0.0001*%
%ADD351R,0.0211X0.0001*%
%ADD352R,0.0211X0.0000*%
%ADD353R,0.0210X0.0000*%
%ADD354R,0.0210X0.0001*%
%ADD355R,0.0221X0.0000*%
%ADD356R,0.0221X0.0001*%
%ADD357R,0.0210X0.0000*%
%ADD358R,0.0210X0.0001*%
%ADD359R,0.0209X0.0000*%
%ADD360R,0.0209X0.0001*%
%ADD361R,0.0220X0.0000*%
%ADD362R,0.0220X0.0001*%
%ADD363R,0.0209X0.0001*%
%ADD364R,0.0209X0.0000*%
%ADD365R,0.0208X0.0000*%
%ADD366R,0.0208X0.0001*%
%ADD367R,0.0219X0.0000*%
%ADD368R,0.0219X0.0001*%
%ADD369R,0.0208X0.0001*%
%ADD370R,0.0208X0.0000*%
%ADD371R,0.0208X0.0000*%
%ADD372R,0.0208X0.0001*%
%ADD373R,0.0217X0.0000*%
%ADD374R,0.0207X0.0000*%
%ADD375R,0.0217X0.0001*%
%ADD376R,0.0207X0.0001*%
%ADD377R,0.0206X0.0000*%
%ADD378R,0.0216X0.0001*%
%ADD379R,0.0206X0.0001*%
%ADD380R,0.0216X0.0000*%
%ADD381R,0.0206X0.0001*%
%ADD382R,0.0206X0.0000*%
%ADD383R,0.0205X0.0000*%
%ADD384R,0.0205X0.0001*%
%ADD385R,0.0215X0.0001*%
%ADD386R,0.0205X0.0001*%
%ADD387R,0.0215X0.0000*%
%ADD388R,0.0205X0.0000*%
%ADD389R,0.0204X0.0000*%
%ADD390R,0.0204X0.0001*%
%ADD391R,0.0214X0.0001*%
%ADD392R,0.0214X0.0000*%
%ADD393R,0.0204X0.0000*%
%ADD394R,0.0204X0.0001*%
%ADD395R,0.0203X0.0000*%
%ADD396R,0.0203X0.0001*%
%ADD397R,0.0212X0.0001*%
%ADD398R,0.0203X0.0001*%
%ADD399R,0.0212X0.0000*%
%ADD400R,0.0203X0.0000*%
%ADD401R,0.0203X0.0000*%
%ADD402R,0.0203X0.0001*%
%ADD403R,0.0211X0.0000*%
%ADD404R,0.0211X0.0001*%
%ADD405R,0.0202X0.0001*%
%ADD406R,0.0202X0.0000*%
%ADD407R,0.0201X0.0000*%
%ADD408R,0.0201X0.0001*%
%ADD409R,0.0210X0.0000*%
%ADD410R,0.0201X0.0000*%
%ADD411R,0.0210X0.0001*%
%ADD412R,0.0201X0.0001*%
%ADD413R,0.0200X0.0000*%
%ADD414R,0.0200X0.0001*%
%ADD415R,0.0209X0.0000*%
%ADD416R,0.0209X0.0001*%
%ADD417R,0.0200X0.0001*%
%ADD418R,0.0200X0.0000*%
%ADD419R,0.0199X0.0000*%
%ADD420R,0.0199X0.0001*%
%ADD421R,0.0199X0.0001*%
%ADD422R,0.0207X0.0000*%
%ADD423R,0.0199X0.0000*%
%ADD424R,0.0207X0.0001*%
%ADD425R,0.0198X0.0000*%
%ADD426R,0.0198X0.0001*%
%ADD427R,0.0206X0.0000*%
%ADD428R,0.0198X0.0000*%
%ADD429R,0.0206X0.0001*%
%ADD430R,0.0198X0.0001*%
%ADD431R,0.0198X0.0000*%
%ADD432R,0.0198X0.0001*%
%ADD433R,0.0197X0.0001*%
%ADD434R,0.0205X0.0000*%
%ADD435R,0.0197X0.0000*%
%ADD436R,0.0205X0.0001*%
%ADD437R,0.0196X0.0000*%
%ADD438R,0.0196X0.0001*%
%ADD439R,0.0204X0.0001*%
%ADD440R,0.0196X0.0001*%
%ADD441R,0.0204X0.0000*%
%ADD442R,0.0196X0.0000*%
%ADD443R,0.0195X0.0000*%
%ADD444R,0.0195X0.0001*%
%ADD445R,0.0195X0.0000*%
%ADD446R,0.0202X0.0001*%
%ADD447R,0.0195X0.0001*%
%ADD448R,0.0202X0.0000*%
%ADD449R,0.0194X0.0000*%
%ADD450R,0.0194X0.0001*%
%ADD451R,0.0201X0.0001*%
%ADD452R,0.0194X0.0001*%
%ADD453R,0.0201X0.0000*%
%ADD454R,0.0194X0.0000*%
%ADD455R,0.0193X0.0000*%
%ADD456R,0.0193X0.0001*%
%ADD457R,0.0193X0.0001*%
%ADD458R,0.0193X0.0000*%
%ADD459R,0.0200X0.0001*%
%ADD460R,0.0200X0.0000*%
%ADD461R,0.0192X0.0000*%
%ADD462R,0.0192X0.0001*%
%ADD463R,0.0199X0.0000*%
%ADD464R,0.0192X0.0000*%
%ADD465R,0.0199X0.0001*%
%ADD466R,0.0192X0.0001*%
%ADD467R,0.0191X0.0000*%
%ADD468R,0.0191X0.0001*%
%ADD469R,0.0191X0.0001*%
%ADD470R,0.0191X0.0000*%
%ADD471R,0.0197X0.0000*%
%ADD472R,0.0197X0.0001*%
%ADD473R,0.0190X0.0000*%
%ADD474R,0.0190X0.0001*%
%ADD475R,0.0190X0.0001*%
%ADD476R,0.0196X0.0000*%
%ADD477R,0.0190X0.0000*%
%ADD478R,0.0196X0.0001*%
%ADD479R,0.0189X0.0000*%
%ADD480R,0.0189X0.0001*%
%ADD481R,0.0189X0.0000*%
%ADD482R,0.0189X0.0001*%
%ADD483R,0.0195X0.0000*%
%ADD484R,0.0195X0.0001*%
%ADD485R,0.0188X0.0000*%
%ADD486R,0.0188X0.0001*%
%ADD487R,0.0188X0.0001*%
%ADD488R,0.0194X0.0000*%
%ADD489R,0.0188X0.0000*%
%ADD490R,0.0194X0.0001*%
%ADD491R,0.0187X0.0000*%
%ADD492R,0.0187X0.0001*%
%ADD493R,0.0187X0.0001*%
%ADD494R,0.0187X0.0000*%
%ADD495R,0.0192X0.0000*%
%ADD496R,0.0186X0.0000*%
%ADD497R,0.0192X0.0001*%
%ADD498R,0.0186X0.0001*%
%ADD499R,0.0186X0.0000*%
%ADD500R,0.0191X0.0001*%
%ADD501R,0.0186X0.0001*%
%ADD502R,0.0191X0.0000*%
%ADD503R,0.0185X0.0000*%
%ADD504R,0.0185X0.0001*%
%ADD505R,0.0185X0.0001*%
%ADD506R,0.0185X0.0000*%
%ADD507R,0.0190X0.0001*%
%ADD508R,0.0190X0.0000*%
%ADD509R,0.0184X0.0000*%
%ADD510R,0.0184X0.0001*%
%ADD511R,0.0184X0.0001*%
%ADD512R,0.0184X0.0000*%
%ADD513R,0.0189X0.0001*%
%ADD514R,0.0189X0.0000*%
%ADD515R,0.0183X0.0000*%
%ADD516R,0.0183X0.0001*%
%ADD517R,0.0183X0.0000*%
%ADD518R,0.0183X0.0001*%
%ADD519R,0.0187X0.0001*%
%ADD520R,0.0187X0.0000*%
%ADD521R,0.0182X0.0000*%
%ADD522R,0.0182X0.0001*%
%ADD523R,0.0182X0.0001*%
%ADD524R,0.0182X0.0000*%
%ADD525R,0.0186X0.0000*%
%ADD526R,0.0186X0.0001*%
%ADD527R,0.0181X0.0000*%
%ADD528R,0.0181X0.0001*%
%ADD529R,0.0181X0.0001*%
%ADD530R,0.0181X0.0000*%
%ADD531R,0.0185X0.0000*%
%ADD532R,0.0180X0.0000*%
%ADD533R,0.0185X0.0001*%
%ADD534R,0.0180X0.0001*%
%ADD535R,0.0180X0.0000*%
%ADD536R,0.0180X0.0001*%
%ADD537R,0.0184X0.0000*%
%ADD538R,0.0184X0.0001*%
%ADD539R,0.0179X0.0000*%
%ADD540R,0.0179X0.0001*%
%ADD541R,0.0179X0.0001*%
%ADD542R,0.0179X0.0000*%
%ADD543R,0.0182X0.0000*%
%ADD544R,0.0178X0.0000*%
%ADD545R,0.0182X0.0001*%
%ADD546R,0.0178X0.0001*%
%ADD547R,0.0178X0.0001*%
%ADD548R,0.0178X0.0000*%
%ADD549R,0.0181X0.0000*%
%ADD550R,0.0177X0.0000*%
%ADD551R,0.0181X0.0001*%
%ADD552R,0.0177X0.0001*%
%ADD553R,0.0177X0.0000*%
%ADD554R,0.0177X0.0001*%
%ADD555R,0.0180X0.0000*%
%ADD556R,0.0176X0.0000*%
%ADD557R,0.0180X0.0001*%
%ADD558R,0.0176X0.0001*%
%ADD559R,0.0176X0.0001*%
%ADD560R,0.0176X0.0000*%
%ADD561R,0.0179X0.0001*%
%ADD562R,0.0179X0.0000*%
%ADD563R,0.0175X0.0000*%
%ADD564R,0.0175X0.0001*%
%ADD565R,0.0175X0.0001*%
%ADD566R,0.0175X0.0000*%
%ADD567R,0.0174X0.0000*%
%ADD568R,0.0177X0.0001*%
%ADD569R,0.0174X0.0001*%
%ADD570R,0.0177X0.0000*%
%ADD571R,0.0174X0.0000*%
%ADD572R,0.0174X0.0001*%
%ADD573R,0.0176X0.0001*%
%ADD574R,0.0176X0.0000*%
%ADD575R,0.0173X0.0000*%
%ADD576R,0.0173X0.0001*%
%ADD577R,0.0173X0.0001*%
%ADD578R,0.0173X0.0000*%
%ADD579R,0.0173X0.0000*%
%ADD580R,0.0175X0.0001*%
%ADD581R,0.0173X0.0001*%
%ADD582R,0.0175X0.0000*%
%ADD583R,0.0172X0.0001*%
%ADD584R,0.0172X0.0000*%
%ADD585R,0.0174X0.0000*%
%ADD586R,0.0171X0.0000*%
%ADD587R,0.0174X0.0001*%
%ADD588R,0.0171X0.0001*%
%ADD589R,0.0171X0.0000*%
%ADD590R,0.0171X0.0001*%
%ADD591R,0.0170X0.0000*%
%ADD592R,0.0172X0.0000*%
%ADD593R,0.0172X0.0001*%
%ADD594R,0.0170X0.0001*%
%ADD595R,0.0170X0.0001*%
%ADD596R,0.0170X0.0000*%
%ADD597R,0.0171X0.0000*%
%ADD598R,0.0169X0.0000*%
%ADD599R,0.0171X0.0001*%
%ADD600R,0.0169X0.0001*%
%ADD601R,0.0169X0.0001*%
%ADD602R,0.0169X0.0000*%
%ADD603R,0.0168X0.0000*%
%ADD604R,0.0168X0.0001*%
%ADD605R,0.0170X0.0000*%
%ADD606R,0.0170X0.0001*%
%ADD607R,0.0168X0.0000*%
%ADD608R,0.0168X0.0001*%
%ADD609R,0.0169X0.0000*%
%ADD610R,0.0168X0.0000*%
%ADD611R,0.0169X0.0001*%
%ADD612R,0.0168X0.0001*%
%ADD613R,0.0167X0.0001*%
%ADD614R,0.0167X0.0000*%
%ADD615R,0.0166X0.0000*%
%ADD616R,0.0166X0.0001*%
%ADD617R,0.0167X0.0000*%
%ADD618R,0.0167X0.0001*%
%ADD619R,0.0166X0.0001*%
%ADD620R,0.0166X0.0000*%
%ADD621R,0.0165X0.0000*%
%ADD622R,0.0166X0.0001*%
%ADD623R,0.0165X0.0001*%
%ADD624R,0.0166X0.0000*%
%ADD625R,0.0165X0.0000*%
%ADD626R,0.0165X0.0001*%
%ADD627R,0.0164X0.0000*%
%ADD628R,0.0165X0.0001*%
%ADD629R,0.0164X0.0001*%
%ADD630R,0.0165X0.0000*%
%ADD631R,0.0164X0.0001*%
%ADD632R,0.0164X0.0000*%
%ADD633R,0.0163X0.0000*%
%ADD634R,0.0164X0.0001*%
%ADD635R,0.0163X0.0001*%
%ADD636R,0.0164X0.0000*%
%ADD637R,0.0163X0.0001*%
%ADD638R,0.0163X0.0000*%
%ADD639R,0.0163X0.0000*%
%ADD640R,0.0163X0.0001*%
%ADD641R,0.0162X0.0001*%
%ADD642R,0.0162X0.0000*%
%ADD643R,0.0162X0.0000*%
%ADD644R,0.0161X0.0001*%
%ADD645R,0.0162X0.0001*%
%ADD646R,0.0161X0.0000*%
%ADD647R,0.0161X0.0000*%
%ADD648R,0.0161X0.0001*%
%ADD649R,0.0160X0.0001*%
%ADD650R,0.0161X0.0001*%
%ADD651R,0.0160X0.0000*%
%ADD652R,0.0161X0.0000*%
%ADD653R,0.0160X0.0000*%
%ADD654R,0.0160X0.0001*%
%ADD655R,0.0160X0.0000*%
%ADD656R,0.0160X0.0001*%
%ADD657R,0.0159X0.0001*%
%ADD658R,0.0159X0.0000*%
%ADD659R,0.0159X0.0000*%
%ADD660R,0.0159X0.0001*%
%ADD661R,0.0159X0.0000*%
%ADD662R,0.0159X0.0001*%
%ADD663R,0.0158X0.0000*%
%ADD664R,0.0158X0.0001*%
%ADD665R,0.0158X0.0000*%
%ADD666R,0.0158X0.0000*%
%ADD667R,0.0158X0.0001*%
%ADD668R,0.0158X0.0001*%
%ADD669R,0.0157X0.0000*%
%ADD670R,0.0157X0.0001*%
%ADD671R,0.0156X0.0000*%
%ADD672R,0.0156X0.0001*%
%ADD673R,0.0156X0.0000*%
%ADD674R,0.0156X0.0001*%
%ADD675R,0.0157X0.0001*%
%ADD676R,0.0155X0.0000*%
%ADD677R,0.0157X0.0000*%
%ADD678R,0.0155X0.0001*%
%ADD679R,0.0155X0.0001*%
%ADD680R,0.0155X0.0000*%
%ADD681R,0.0155X0.0000*%
%ADD682R,0.0156X0.0000*%
%ADD683R,0.0155X0.0001*%
%ADD684R,0.0156X0.0001*%
%ADD685R,0.0154X0.0000*%
%ADD686R,0.0154X0.0001*%
%ADD687R,0.0154X0.0001*%
%ADD688R,0.0154X0.0000*%
%ADD689R,0.0153X0.0000*%
%ADD690R,0.0153X0.0001*%
%ADD691R,0.0154X0.0000*%
%ADD692R,0.0152X0.0001*%
%ADD693R,0.0154X0.0001*%
%ADD694R,0.0152X0.0000*%
%ADD695R,0.0152X0.0001*%
%ADD696R,0.0152X0.0000*%
%ADD697R,0.0151X0.0000*%
%ADD698R,0.0153X0.0000*%
%ADD699R,0.0151X0.0001*%
%ADD700R,0.0153X0.0001*%
%ADD701R,0.0151X0.0001*%
%ADD702R,0.0151X0.0000*%
%ADD703R,0.0150X0.0001*%
%ADD704R,0.0150X0.0000*%
%ADD705R,0.0150X0.0000*%
%ADD706R,0.0150X0.0001*%
%ADD707R,0.0150X0.0001*%
%ADD708R,0.0152X0.0001*%
%ADD709R,0.0150X0.0000*%
%ADD710R,0.0152X0.0000*%
%ADD711R,0.0149X0.0000*%
%ADD712R,0.0149X0.0001*%
%ADD713R,0.0149X0.0000*%
%ADD714R,0.0149X0.0001*%
%ADD715R,0.0151X0.0001*%
%ADD716R,0.0151X0.0000*%
%ADD717R,0.0148X0.0001*%
%ADD718R,0.0148X0.0000*%
%ADD719R,0.0260X0.0000*%
%ADD720R,0.0259X0.0000*%
%ADD721R,0.0260X0.0001*%
%ADD722R,0.0259X0.0001*%
%ADD723R,0.0868X0.0000*%
%ADD724R,0.0868X0.0001*%
%ADD725R,0.0321X0.0000*%
%ADD726R,0.0305X0.0000*%
%ADD727R,0.0321X0.0001*%
%ADD728R,0.0305X0.0001*%
%ADD729R,0.0867X0.0000*%
%ADD730R,0.0867X0.0001*%
%ADD731R,0.0867X0.0000*%
%ADD732R,0.0867X0.0001*%
%ADD733R,0.0866X0.0000*%
%ADD734R,0.0866X0.0000*%
%ADD735R,0.0866X0.0001*%
%ADD736R,0.0866X0.0000*%
%ADD737R,0.0866X0.0001*%
%ADD738R,0.0865X0.0000*%
%ADD739R,0.0865X0.0001*%
%ADD740R,0.0864X0.0001*%
%ADD741R,0.0864X0.0000*%
%ADD742R,0.0864X0.0001*%
%ADD743R,0.0864X0.0000*%
%ADD744R,0.0864X0.0001*%
%ADD745R,0.0864X0.0000*%
%ADD746R,0.0863X0.0001*%
%ADD747R,0.0863X0.0000*%
%ADD748R,0.0862X0.0001*%
%ADD749R,0.0862X0.0000*%
%ADD750R,0.0862X0.0001*%
%ADD751R,0.0862X0.0000*%
%ADD752R,0.0861X0.0001*%
%ADD753R,0.0861X0.0000*%
%ADD754R,0.0861X0.0001*%
%ADD755R,0.0860X0.0001*%
%ADD756R,0.0860X0.0000*%
%ADD757R,0.0859X0.0000*%
%ADD758R,0.0859X0.0001*%
%ADD759R,0.0858X0.0000*%
%ADD760R,0.0858X0.0001*%
%ADD761R,0.0857X0.0001*%
%ADD762R,0.0857X0.0000*%
%ADD763R,0.0856X0.0000*%
%ADD764R,0.0856X0.0001*%
%ADD765R,0.0855X0.0000*%
%ADD766R,0.0855X0.0001*%
%ADD767R,0.0855X0.0000*%
%ADD768R,0.0855X0.0001*%
%ADD769R,0.0854X0.0000*%
%ADD770R,0.0854X0.0001*%
%ADD771R,0.0853X0.0000*%
%ADD772R,0.0853X0.0001*%
%ADD773R,0.0853X0.0000*%
%ADD774R,0.0853X0.0000*%
%ADD775R,0.0852X0.0001*%
%ADD776R,0.0852X0.0000*%
%ADD777R,0.0852X0.0001*%
%ADD778R,0.0851X0.0000*%
%ADD779R,0.0850X0.0001*%
%ADD780R,0.0850X0.0000*%
%ADD781R,0.0850X0.0001*%
%ADD782R,0.0849X0.0000*%
%ADD783R,0.0848X0.0001*%
%ADD784R,0.0848X0.0000*%
%ADD785R,0.0848X0.0001*%
%ADD786R,0.0848X0.0000*%
%ADD787R,0.0847X0.0000*%
%ADD788R,0.0847X0.0001*%
%ADD789R,0.0846X0.0000*%
%ADD790R,0.0846X0.0001*%
%ADD791R,0.0845X0.0000*%
%ADD792R,0.0845X0.0000*%
%ADD793R,0.0845X0.0001*%
%ADD794R,0.0843X0.0000*%
%ADD795R,0.0843X0.0001*%
%ADD796R,0.0841X0.0000*%
%ADD797R,0.0840X0.0000*%
%ADD798R,0.0839X0.0001*%
%ADD799R,0.0838X0.0000*%
%ADD800R,0.0837X0.0001*%
%ADD801R,0.0836X0.0000*%
%ADD802R,0.0835X0.0000*%
%ADD803R,0.0834X0.0001*%
%ADD804R,0.0833X0.0000*%
%ADD805R,0.0832X0.0001*%
%ADD806R,0.0831X0.0000*%
%ADD807R,0.0830X0.0000*%
%ADD808R,0.0829X0.0001*%
%ADD809R,0.0828X0.0000*%
%ADD810R,0.0827X0.0001*%
%ADD811R,0.0826X0.0000*%
%ADD812R,0.0825X0.0000*%
%ADD813R,0.0824X0.0001*%
%ADD814R,0.0823X0.0000*%
%ADD815R,0.0822X0.0001*%
%ADD816R,0.0821X0.0000*%
%ADD817R,0.0820X0.0000*%
%ADD818R,0.0819X0.0001*%
%ADD819R,0.0818X0.0000*%
%ADD820R,0.0817X0.0001*%
%ADD821R,0.0816X0.0000*%
%ADD822R,0.0815X0.0000*%
%ADD823R,0.0814X0.0001*%
%ADD824R,0.0813X0.0000*%
%ADD825R,0.0812X0.0001*%
%ADD826R,0.0811X0.0000*%
%ADD827R,0.0810X0.0000*%
%ADD828R,0.0808X0.0001*%
%ADD829R,0.0808X0.0000*%
%ADD830R,0.0807X0.0001*%
%ADD831R,0.0805X0.0000*%
%ADD832R,0.0805X0.0000*%
%ADD833R,0.0803X0.0001*%
%ADD834R,0.0803X0.0000*%
%ADD835R,0.0802X0.0001*%
%ADD836R,0.0800X0.0000*%
%ADD837R,0.0800X0.0000*%
%ADD838R,0.0798X0.0001*%
%ADD839R,0.0798X0.0000*%
%ADD840R,0.0797X0.0001*%
%ADD841R,0.0795X0.0000*%
%ADD842R,0.0795X0.0000*%
%ADD843R,0.0793X0.0001*%
%ADD844R,0.0793X0.0000*%
%ADD845R,0.0791X0.0001*%
%ADD846R,0.0790X0.0000*%
%ADD847R,0.0789X0.0000*%
%ADD848R,0.0788X0.0001*%
%ADD849R,0.0787X0.0000*%
%ADD850R,0.0786X0.0001*%
%ADD851R,0.0785X0.0000*%
%ADD852R,0.0784X0.0000*%
%ADD853R,0.0783X0.0001*%
%ADD854R,0.0782X0.0000*%
%ADD855R,0.0781X0.0001*%
%ADD856R,0.0780X0.0000*%
%ADD857R,0.0779X0.0000*%
%ADD858R,0.0778X0.0001*%
%ADD859R,0.0777X0.0000*%
%ADD860R,0.0776X0.0001*%
%ADD861R,0.0775X0.0000*%
%ADD862R,0.0774X0.0000*%
%ADD863R,0.0773X0.0001*%
%ADD864R,0.0772X0.0000*%
%ADD865R,0.0771X0.0001*%
%ADD866R,0.0770X0.0000*%
%ADD867R,0.0769X0.0000*%
%ADD868R,0.0768X0.0001*%
%ADD869R,0.0767X0.0000*%
%ADD870R,0.0766X0.0001*%
%ADD871R,0.0765X0.0000*%
%ADD872R,0.0764X0.0000*%
%ADD873R,0.0763X0.0001*%
%ADD874R,0.0762X0.0000*%
%ADD875R,0.0761X0.0001*%
%ADD876R,0.0760X0.0000*%
%ADD877R,0.0758X0.0000*%
%ADD878R,0.0757X0.0001*%
%ADD879R,0.0757X0.0000*%
%ADD880R,0.0755X0.0001*%
%ADD881R,0.0755X0.0000*%
%ADD882R,0.0753X0.0000*%
%ADD883R,0.0752X0.0001*%
%ADD884R,0.0752X0.0000*%
%ADD885R,0.0750X0.0001*%
%ADD886R,0.0750X0.0000*%
%ADD887R,0.0748X0.0000*%
%ADD888R,0.0747X0.0001*%
%ADD889R,0.0747X0.0000*%
%ADD890R,0.0745X0.0001*%
%ADD891R,0.0745X0.0000*%
%ADD892R,0.0743X0.0000*%
%ADD893R,0.0742X0.0001*%
%ADD894R,0.0741X0.0000*%
%ADD895R,0.0740X0.0001*%
%ADD896R,0.0739X0.0000*%
%ADD897R,0.0738X0.0000*%
%ADD898R,0.0737X0.0001*%
%ADD899R,0.0736X0.0000*%
%ADD900R,0.0735X0.0001*%
%ADD901R,0.0734X0.0000*%
%ADD902R,0.0733X0.0000*%
%ADD903R,0.0732X0.0001*%
%ADD904R,0.0731X0.0000*%
%ADD905R,0.0730X0.0001*%
%ADD906R,0.0729X0.0000*%
%ADD907R,0.0728X0.0000*%
%ADD908R,0.0727X0.0001*%
%ADD909R,0.0726X0.0000*%
%ADD910R,0.0725X0.0001*%
%ADD911R,0.0724X0.0000*%
%ADD912R,0.0723X0.0000*%
%ADD913R,0.0722X0.0001*%
%ADD914R,0.0721X0.0000*%
%ADD915R,0.0720X0.0001*%
%ADD916R,0.0719X0.0000*%
%ADD917R,0.0718X0.0000*%
%ADD918R,0.0717X0.0001*%
%ADD919R,0.0716X0.0000*%
%ADD920R,0.0715X0.0001*%
%ADD921R,0.0714X0.0000*%
%ADD922R,0.0713X0.0000*%
%ADD923R,0.0712X0.0001*%
%ADD924R,0.0711X0.0000*%
%ADD925R,0.0710X0.0001*%
%ADD926R,0.0709X0.0000*%
%ADD927R,0.0707X0.0000*%
%ADD928R,0.0707X0.0001*%
%ADD929R,0.0705X0.0000*%
%ADD930R,0.0705X0.0001*%
%ADD931R,0.0703X0.0000*%
%ADD932R,0.0703X0.0000*%
%ADD933R,0.0702X0.0001*%
%ADD934R,0.0700X0.0000*%
%ADD935R,0.0700X0.0001*%
%ADD936R,0.0698X0.0000*%
%ADD937R,0.0698X0.0000*%
%ADD938R,0.0697X0.0001*%
%ADD939R,0.0695X0.0000*%
%ADD940R,0.0695X0.0001*%
%ADD941R,0.0693X0.0000*%
%ADD942R,0.0692X0.0000*%
%ADD943R,0.0691X0.0001*%
%ADD944R,0.0690X0.0000*%
%ADD945R,0.0689X0.0001*%
%ADD946R,0.0688X0.0000*%
%ADD947R,0.0687X0.0000*%
%ADD948R,0.0686X0.0001*%
%ADD949R,0.0685X0.0000*%
%ADD950R,0.0684X0.0001*%
%ADD951R,0.0683X0.0000*%
%ADD952R,0.0682X0.0000*%
%ADD953R,0.0681X0.0001*%
%ADD954R,0.0680X0.0000*%
%ADD955R,0.0679X0.0001*%
%ADD956R,0.0678X0.0000*%
%ADD957R,0.0677X0.0000*%
%ADD958R,0.0676X0.0001*%
%ADD959R,0.0675X0.0000*%
%ADD960R,0.0674X0.0001*%
%ADD961R,0.0673X0.0000*%
%ADD962R,0.0672X0.0000*%
%ADD963R,0.0671X0.0001*%
%ADD964R,0.0670X0.0000*%
%ADD965R,0.0669X0.0001*%
%ADD966R,0.0668X0.0000*%
%ADD967R,0.0667X0.0000*%
%ADD968R,0.0666X0.0001*%
%ADD969R,0.0665X0.0000*%
%ADD970R,0.0664X0.0001*%
%ADD971R,0.0663X0.0000*%
%ADD972R,0.0662X0.0000*%
%ADD973R,0.0661X0.0001*%
%ADD974R,0.0660X0.0000*%
%ADD975R,0.0659X0.0001*%
%ADD976R,0.0658X0.0000*%
%ADD977R,0.0657X0.0000*%
%ADD978R,0.0655X0.0001*%
%ADD979R,0.0655X0.0000*%
%ADD980R,0.0653X0.0001*%
%ADD981R,0.0653X0.0000*%
%ADD982R,0.0652X0.0000*%
%ADD983R,0.0650X0.0001*%
%ADD984R,0.0650X0.0000*%
%ADD985R,0.0648X0.0001*%
%ADD986R,0.0648X0.0000*%
%ADD987R,0.0647X0.0000*%
%ADD988R,0.0645X0.0001*%
%ADD989R,0.0645X0.0000*%
%ADD990R,0.0643X0.0001*%
%ADD991R,0.0642X0.0000*%
%ADD992R,0.0641X0.0000*%
%ADD993R,0.0640X0.0001*%
%ADD994R,0.0639X0.0000*%
%ADD995R,0.0638X0.0001*%
%ADD996R,0.0637X0.0000*%
%ADD997R,0.0636X0.0000*%
%ADD998R,0.0635X0.0001*%
%ADD999R,0.0634X0.0000*%
%ADD1000R,0.0633X0.0001*%
%ADD1001R,0.0632X0.0000*%
%ADD1002R,0.0631X0.0000*%
%ADD1003R,0.0630X0.0001*%
%ADD1004R,0.0629X0.0000*%
%ADD1005R,0.0628X0.0001*%
%ADD1006R,0.0627X0.0000*%
%ADD1007R,0.0626X0.0000*%
%ADD1008R,0.0625X0.0001*%
%ADD1009R,0.0624X0.0000*%
%ADD1010R,0.0623X0.0001*%
%ADD1011R,0.0622X0.0000*%
%ADD1012R,0.0621X0.0000*%
%ADD1013R,0.0620X0.0001*%
%ADD1014R,0.0619X0.0000*%
%ADD1015R,0.0618X0.0001*%
%ADD1016R,0.0617X0.0000*%
%ADD1017R,0.0616X0.0000*%
%ADD1018R,0.0615X0.0001*%
%ADD1019R,0.0614X0.0000*%
%ADD1020R,0.0613X0.0001*%
%ADD1021R,0.0612X0.0000*%
%ADD1022R,0.0611X0.0000*%
%ADD1023R,0.0610X0.0001*%
%ADD1024R,0.0609X0.0000*%
%ADD1025R,0.0607X0.0001*%
%ADD1026R,0.0607X0.0000*%
%ADD1027R,0.0605X0.0000*%
%ADD1028R,0.0605X0.0001*%
%ADD1029R,0.0603X0.0000*%
%ADD1030R,0.0602X0.0001*%
%ADD1031R,0.0602X0.0000*%
%ADD1032R,0.0600X0.0000*%
%ADD1033R,0.0600X0.0001*%
%ADD1034R,0.0598X0.0000*%
%ADD1035R,0.0597X0.0001*%
%ADD1036R,0.0597X0.0000*%
%ADD1037R,0.0595X0.0000*%
%ADD1038R,0.0595X0.0001*%
%ADD1039R,0.0593X0.0000*%
%ADD1040R,0.0592X0.0001*%
%ADD1041R,0.0591X0.0000*%
%ADD1042R,0.0590X0.0000*%
%ADD1043R,0.0589X0.0001*%
%ADD1044R,0.0588X0.0000*%
%ADD1045R,0.0587X0.0001*%
%ADD1046R,0.0586X0.0000*%
%ADD1047R,0.0585X0.0000*%
%ADD1048R,0.0584X0.0001*%
%ADD1049R,0.0583X0.0000*%
%ADD1050R,0.0582X0.0001*%
%ADD1051R,0.0581X0.0000*%
%ADD1052R,0.0580X0.0000*%
%ADD1053R,0.0579X0.0001*%
%ADD1054R,0.0578X0.0000*%
%ADD1055R,0.0577X0.0001*%
%ADD1056R,0.0576X0.0000*%
%ADD1057R,0.0575X0.0000*%
%ADD1058R,0.0574X0.0001*%
%ADD1059R,0.0573X0.0000*%
%ADD1060R,0.0571X0.0001*%
%ADD1061R,0.0568X0.0000*%
%ADD1062R,0.0565X0.0000*%
%ADD1063R,0.0563X0.0001*%
%ADD1064R,0.0560X0.0000*%
%ADD1065R,0.0557X0.0001*%
%ADD1066R,0.0554X0.0000*%
%ADD1067R,0.0551X0.0000*%
%ADD1068R,0.0548X0.0001*%
%ADD1069R,0.0545X0.0000*%
%ADD1070R,0.0542X0.0001*%
%ADD1071R,0.0537X0.0000*%
%ADD1072R,0.0533X0.0000*%
%ADD1073R,0.0530X0.0001*%
%ADD1074R,0.0526X0.0000*%
%ADD1075R,0.0522X0.0001*%
%ADD1076R,0.0518X0.0000*%
%ADD1077R,0.0513X0.0000*%
%ADD1078R,0.0508X0.0001*%
%ADD1079R,0.0503X0.0000*%
%ADD1080R,0.0496X0.0001*%
%ADD1081R,0.0489X0.0000*%
%ADD1082R,0.0477X0.0000*%
%ADD1083C,0.0000*%
D10*
X001244Y003710D02*
X001244Y003810D01*
X001278Y003843D01*
X001311Y003810D01*
X001311Y003710D01*
X001378Y003710D02*
X001378Y003843D01*
X001344Y003843D01*
X001311Y003810D01*
X001465Y003810D02*
X001465Y003743D01*
X001499Y003710D01*
X001565Y003710D01*
X001599Y003743D01*
X001599Y003810D01*
X001565Y003843D01*
X001499Y003843D01*
X001465Y003810D01*
X001686Y003843D02*
X001786Y003843D01*
X001820Y003810D01*
X001820Y003743D01*
X001786Y003710D01*
X001686Y003710D01*
X001897Y003710D02*
X001930Y003710D01*
X001930Y003743D01*
X001897Y003743D01*
X001897Y003710D01*
X002018Y003710D02*
X002118Y003710D01*
X002151Y003743D01*
X002151Y003810D01*
X002118Y003843D01*
X002018Y003843D01*
X002265Y003843D02*
X002265Y003710D01*
X002232Y003710D02*
X002299Y003710D01*
X002379Y003710D02*
X002413Y003743D01*
X002413Y003877D01*
X002446Y003843D02*
X002379Y003843D01*
X002299Y003843D02*
X002265Y003843D01*
X002265Y003910D02*
X002265Y003944D01*
X002533Y003810D02*
X002533Y003743D01*
X002567Y003710D01*
X002634Y003710D01*
X002667Y003743D01*
X002667Y003810D01*
X002634Y003843D01*
X002567Y003843D01*
X002533Y003810D01*
X002754Y003810D02*
X002754Y003743D01*
X002788Y003710D01*
X002888Y003710D01*
X002888Y003910D01*
X002888Y003843D02*
X002788Y003843D01*
X002754Y003810D01*
X002975Y003810D02*
X002975Y003743D01*
X003009Y003710D01*
X003076Y003710D01*
X003109Y003743D01*
X003109Y003810D01*
X003076Y003843D01*
X003009Y003843D01*
X002975Y003810D01*
X003193Y003843D02*
X003226Y003843D01*
X003293Y003777D01*
X003293Y003843D02*
X003293Y003710D01*
X003381Y003710D02*
X003481Y003710D01*
X003514Y003743D01*
X003514Y003810D01*
X003481Y003843D01*
X003381Y003843D01*
X003602Y003810D02*
X003602Y003710D01*
X003702Y003710D01*
X003735Y003743D01*
X003702Y003777D01*
X003602Y003777D01*
X003602Y003810D02*
X003635Y003843D01*
X003702Y003843D01*
D11*
X000856Y001115D02*
X000811Y001160D01*
X000811Y001340D01*
X000856Y001385D01*
X000991Y001385D01*
X000991Y001115D01*
X000856Y001115D01*
X001105Y001115D02*
X001105Y001385D01*
X001285Y001385D02*
X001105Y001115D01*
X001285Y001115D02*
X001285Y001385D01*
X001400Y001340D02*
X001445Y001385D01*
X001535Y001385D01*
X001580Y001340D01*
X001580Y001160D01*
X001535Y001115D01*
X001445Y001115D01*
X001400Y001160D01*
X001400Y001250D01*
X001490Y001250D01*
X001811Y001115D02*
X001991Y001115D01*
X001901Y001115D02*
X001901Y001385D01*
X001991Y001295D01*
X002105Y001295D02*
X002240Y001295D01*
X002285Y001250D01*
X002240Y001205D01*
X002150Y001205D01*
X002105Y001160D01*
X002150Y001115D01*
X002285Y001115D01*
X002400Y001115D02*
X002490Y001205D01*
X002445Y001205D02*
X002580Y001205D01*
X002580Y001115D02*
X002580Y001385D01*
X002445Y001385D01*
X002400Y001340D01*
X002400Y001250D01*
X002445Y001205D01*
X003005Y001205D02*
X003005Y001385D01*
X003005Y001205D02*
X003095Y001115D01*
X003185Y001205D01*
X003185Y001385D01*
X003300Y001385D02*
X003480Y001385D01*
X003480Y001250D01*
X003390Y001295D01*
X003345Y001295D01*
X003300Y001250D01*
X003300Y001160D01*
X003345Y001115D01*
X003435Y001115D01*
X003480Y001160D01*
X003525Y002245D02*
X003344Y002245D01*
X003435Y002245D02*
X003435Y002515D01*
X003525Y002425D01*
X003639Y002380D02*
X003639Y002245D01*
X003639Y002380D02*
X003684Y002425D01*
X003774Y002425D01*
X003819Y002380D01*
X003819Y002515D02*
X003819Y002245D01*
X003934Y002245D02*
X004024Y002335D01*
X003979Y002335D02*
X004114Y002335D01*
X004114Y002245D02*
X004114Y002515D01*
X003979Y002515D01*
X003934Y002470D01*
X003934Y002380D01*
X003979Y002335D01*
X003114Y002335D02*
X002979Y002335D01*
X002934Y002380D01*
X002934Y002470D01*
X002979Y002515D01*
X003114Y002515D01*
X003114Y002245D01*
X003024Y002335D02*
X002934Y002245D01*
X002819Y002245D02*
X002684Y002245D01*
X002639Y002290D01*
X002684Y002335D01*
X002774Y002335D01*
X002819Y002380D01*
X002774Y002425D01*
X002639Y002425D01*
X002525Y002425D02*
X002435Y002515D01*
X002435Y002245D01*
X002525Y002245D02*
X002344Y002245D01*
X002384Y005095D02*
X002474Y005185D01*
X002429Y005185D02*
X002564Y005185D01*
X002564Y005095D02*
X002564Y005365D01*
X002429Y005365D01*
X002384Y005320D01*
X002384Y005230D01*
X002429Y005185D01*
X002269Y005230D02*
X002224Y005275D01*
X002134Y005275D01*
X002089Y005230D01*
X002089Y005095D01*
X001975Y005095D02*
X001794Y005275D01*
X001794Y005320D01*
X001840Y005365D01*
X001930Y005365D01*
X001975Y005320D01*
X001975Y005095D02*
X001794Y005095D01*
X001564Y005095D02*
X001564Y005365D01*
X001429Y005365D01*
X001384Y005320D01*
X001384Y005230D01*
X001429Y005185D01*
X001564Y005185D01*
X001474Y005185D02*
X001384Y005095D01*
X001269Y005095D02*
X001269Y005365D01*
X001224Y005275D02*
X001134Y005275D01*
X001089Y005230D01*
X001089Y005095D01*
X000975Y005095D02*
X000794Y005095D01*
X000885Y005095D02*
X000885Y005365D01*
X000975Y005275D01*
X001224Y005275D02*
X001269Y005230D01*
X002269Y005365D02*
X002269Y005095D01*
X002794Y005095D02*
X002975Y005095D01*
X002794Y005275D01*
X002794Y005320D01*
X002840Y005365D01*
X002930Y005365D01*
X002975Y005320D01*
X003089Y005275D02*
X003224Y005275D01*
X003269Y005230D01*
X003224Y005185D01*
X003134Y005185D01*
X003089Y005140D01*
X003134Y005095D01*
X003269Y005095D01*
X003384Y005095D02*
X003474Y005185D01*
X003429Y005185D02*
X003564Y005185D01*
X003564Y005095D02*
X003564Y005365D01*
X003429Y005365D01*
X003384Y005320D01*
X003384Y005230D01*
X003429Y005185D01*
D12*
X003311Y002155D02*
X003311Y001525D01*
X003099Y001525D02*
X003099Y002155D01*
X002311Y002155D02*
X002311Y001525D01*
X004099Y001525D02*
X004099Y002155D01*
D13*
X002689Y003965D03*
D14*
X002072Y003965D03*
D15*
X002072Y003965D03*
X002689Y003965D03*
D16*
X002689Y003966D03*
D17*
X002072Y003966D03*
D18*
X002689Y003966D03*
D19*
X002072Y003966D03*
X002072Y004216D03*
D20*
X002072Y003967D03*
X002689Y003967D03*
D21*
X002689Y003968D03*
D22*
X002072Y003968D03*
D23*
X002072Y003968D03*
X002689Y003968D03*
D24*
X002689Y003969D03*
X002072Y003969D03*
D25*
X002072Y003969D03*
X002072Y004214D03*
X002689Y003969D03*
D26*
X002689Y003969D03*
X002072Y003969D03*
D27*
X002689Y003970D03*
D28*
X002072Y003970D03*
D29*
X002689Y003970D03*
D30*
X002072Y003970D03*
D31*
X002689Y003971D03*
D32*
X002072Y003971D03*
D33*
X002072Y003971D03*
X002072Y004211D03*
X002689Y003971D03*
D34*
X002689Y003972D03*
X002072Y003972D03*
D35*
X002072Y003973D03*
X002689Y003973D03*
D36*
X002689Y003973D03*
D37*
X002072Y003973D03*
D38*
X002689Y003974D03*
D39*
X002072Y003974D03*
D40*
X002072Y003974D03*
X002689Y003974D03*
D41*
X002689Y003974D03*
D42*
X002072Y003974D03*
D43*
X002689Y003975D03*
D44*
X002072Y003975D03*
D45*
X002689Y003975D03*
D46*
X002689Y004204D03*
X002072Y003975D03*
D47*
X002689Y003976D03*
X002689Y004204D03*
D48*
X002072Y003976D03*
D49*
X002689Y003976D03*
D50*
X002072Y003976D03*
X002072Y004206D03*
D51*
X002689Y004203D03*
X002689Y003977D03*
D52*
X002072Y003977D03*
D53*
X002072Y003978D03*
X002072Y004205D03*
X002689Y003978D03*
D54*
X002689Y003978D03*
D55*
X002689Y004202D03*
X002072Y003978D03*
D56*
X002072Y003979D03*
X002689Y003979D03*
X002689Y004201D03*
D57*
X002689Y003979D03*
D58*
X002072Y003979D03*
X002072Y004204D03*
D59*
X002072Y004203D03*
X002072Y003979D03*
X002689Y003979D03*
D60*
X002689Y003980D03*
D61*
X002689Y004200D03*
X002072Y004204D03*
X002072Y003980D03*
D62*
X002689Y003980D03*
D63*
X002072Y003980D03*
X002072Y004202D03*
D64*
X002689Y004199D03*
X002689Y003981D03*
D65*
X002072Y003981D03*
X002072Y004203D03*
D66*
X002689Y004198D03*
X002689Y003983D03*
X002689Y003981D03*
D67*
X002689Y004199D03*
X002072Y004201D03*
X002072Y003981D03*
D68*
X002689Y003982D03*
X002689Y004198D03*
D69*
X002072Y004200D03*
X002072Y003982D03*
D70*
X002072Y003983D03*
X002072Y004201D03*
D71*
X002689Y004197D03*
X002689Y003983D03*
D72*
X002072Y003983D03*
D73*
X002072Y003984D03*
X002072Y003984D03*
X002072Y004199D03*
X002072Y004199D03*
X002689Y004196D03*
X002689Y004196D03*
X002689Y003984D03*
X002689Y003984D03*
D74*
X002689Y003984D03*
D75*
X002689Y004195D03*
X002072Y004199D03*
X002072Y003984D03*
D76*
X002689Y003985D03*
X002689Y004195D03*
D77*
X002072Y003985D03*
D78*
X002072Y003985D03*
X002072Y003987D03*
X002072Y004195D03*
X002072Y004197D03*
X002689Y004194D03*
X002689Y004193D03*
X002689Y003987D03*
X002689Y003985D03*
D79*
X002689Y003986D03*
X002689Y003986D03*
X002689Y004193D03*
X002689Y004194D03*
X002689Y004194D03*
X002072Y004196D03*
X002072Y004196D03*
X002072Y004198D03*
X002072Y003988D03*
X002072Y003986D03*
X002072Y003986D03*
D80*
X002689Y003988D03*
X002689Y003989D03*
X002689Y003989D03*
X002689Y003990D03*
X002689Y003991D03*
X002689Y003991D03*
X002689Y003993D03*
X002689Y003994D03*
X002689Y003994D03*
X002689Y003995D03*
X002689Y003996D03*
X002689Y003996D03*
X002689Y003998D03*
X002689Y003999D03*
X002689Y003999D03*
X002689Y004000D03*
X002689Y004001D03*
X002689Y004001D03*
X002689Y004003D03*
X002689Y004004D03*
X002689Y004004D03*
X002689Y004005D03*
X002689Y004006D03*
X002689Y004006D03*
X002689Y004008D03*
X002689Y004009D03*
X002689Y004009D03*
X002689Y004010D03*
X002689Y004011D03*
X002689Y004011D03*
X002689Y004013D03*
X002689Y004014D03*
X002689Y004014D03*
X002689Y004015D03*
X002689Y004016D03*
X002689Y004016D03*
X002689Y004018D03*
X002689Y004019D03*
X002689Y004019D03*
X002689Y004020D03*
X002689Y004021D03*
X002689Y004021D03*
X002689Y004023D03*
X002689Y004024D03*
X002689Y004024D03*
X002689Y004025D03*
X002689Y004026D03*
X002689Y004026D03*
X002689Y004028D03*
X002689Y004029D03*
X002689Y004029D03*
X002689Y004030D03*
X002689Y004031D03*
X002689Y004031D03*
X002689Y004033D03*
X002689Y004034D03*
X002689Y004034D03*
X002689Y004035D03*
X002689Y004036D03*
X002689Y004036D03*
X002689Y004038D03*
X002689Y004039D03*
X002689Y004039D03*
X002689Y004040D03*
X002689Y004041D03*
X002689Y004041D03*
X002689Y004043D03*
X002689Y004044D03*
X002689Y004044D03*
X002689Y004045D03*
X002689Y004046D03*
X002689Y004046D03*
X002689Y004048D03*
X002689Y004049D03*
X002689Y004049D03*
X002689Y004050D03*
X002689Y004051D03*
X002689Y004051D03*
X002689Y004053D03*
X002689Y004054D03*
X002689Y004054D03*
X002689Y004055D03*
X002689Y004056D03*
X002689Y004056D03*
X002689Y004058D03*
X002689Y004059D03*
X002689Y004059D03*
X002689Y004060D03*
X002689Y004061D03*
X002689Y004061D03*
X002689Y004063D03*
X002689Y004064D03*
X002689Y004064D03*
X002689Y004065D03*
X002689Y004066D03*
X002689Y004066D03*
X002689Y004068D03*
X002689Y004069D03*
X002689Y004069D03*
X002689Y004070D03*
X002689Y004071D03*
X002689Y004071D03*
X002689Y004073D03*
X002689Y004074D03*
X002689Y004074D03*
X002689Y004075D03*
X002689Y004076D03*
X002689Y004076D03*
X002689Y004078D03*
X002689Y004079D03*
X002689Y004079D03*
X002689Y004080D03*
X002689Y004081D03*
X002689Y004081D03*
X002689Y004083D03*
X002689Y004084D03*
X002689Y004084D03*
X002689Y004085D03*
X002689Y004086D03*
X002689Y004086D03*
X002689Y004088D03*
X002689Y004089D03*
X002689Y004089D03*
X002689Y004090D03*
X002689Y004091D03*
X002689Y004091D03*
X002689Y004093D03*
X002689Y004094D03*
X002689Y004094D03*
X002689Y004095D03*
X002689Y004096D03*
X002689Y004096D03*
X002689Y004098D03*
X002689Y004099D03*
X002689Y004099D03*
X002689Y004100D03*
X002689Y004101D03*
X002689Y004101D03*
X002689Y004103D03*
X002689Y004104D03*
X002689Y004104D03*
X002689Y004105D03*
X002689Y004106D03*
X002689Y004106D03*
X002689Y004108D03*
X002689Y004109D03*
X002689Y004109D03*
X002689Y004110D03*
X002689Y004111D03*
X002689Y004111D03*
X002689Y004113D03*
X002689Y004114D03*
X002689Y004114D03*
X002689Y004115D03*
X002689Y004116D03*
X002689Y004116D03*
X002689Y004118D03*
X002689Y004119D03*
X002689Y004119D03*
X002689Y004120D03*
X002689Y004121D03*
X002689Y004121D03*
X002689Y004123D03*
X002689Y004124D03*
X002689Y004124D03*
X002689Y004125D03*
X002689Y004126D03*
X002689Y004126D03*
X002689Y004128D03*
X002689Y004129D03*
X002689Y004129D03*
X002689Y004130D03*
X002689Y004131D03*
X002689Y004131D03*
X002689Y004133D03*
X002689Y004134D03*
X002689Y004134D03*
X002689Y004135D03*
X002689Y004136D03*
X002689Y004136D03*
X002689Y004138D03*
X002689Y004139D03*
X002689Y004139D03*
X002689Y004140D03*
X002689Y004141D03*
X002689Y004141D03*
X002689Y004143D03*
X002689Y004144D03*
X002689Y004144D03*
X002689Y004145D03*
X002689Y004146D03*
X002689Y004146D03*
X002689Y004148D03*
X002689Y004149D03*
X002689Y004149D03*
X002689Y004150D03*
X002689Y004151D03*
X002689Y004151D03*
X002689Y004153D03*
X002689Y004154D03*
X002689Y004154D03*
X002689Y004155D03*
X002689Y004156D03*
X002689Y004156D03*
X002689Y004158D03*
X002689Y004159D03*
X002689Y004159D03*
X002689Y004160D03*
X002689Y004161D03*
X002689Y004161D03*
X002689Y004163D03*
X002689Y004164D03*
X002689Y004164D03*
X002689Y004165D03*
X002689Y004166D03*
X002689Y004166D03*
X002689Y004168D03*
X002689Y004169D03*
X002689Y004169D03*
X002689Y004170D03*
X002689Y004171D03*
X002689Y004171D03*
X002689Y004173D03*
X002689Y004174D03*
X002689Y004174D03*
X002689Y004175D03*
X002689Y004176D03*
X002689Y004176D03*
X002689Y004178D03*
X002689Y004179D03*
X002689Y004179D03*
X002689Y004180D03*
X002689Y004181D03*
X002689Y004181D03*
X002689Y004183D03*
X002689Y004184D03*
X002689Y004184D03*
X002689Y004185D03*
X002689Y004186D03*
X002689Y004186D03*
X002689Y004188D03*
X002689Y004189D03*
X002689Y004189D03*
X002689Y004190D03*
X002689Y004191D03*
X002689Y004191D03*
D81*
X002689Y004190D03*
X002689Y004189D03*
X002689Y004188D03*
X002689Y004187D03*
X002689Y004185D03*
X002689Y004184D03*
X002689Y004183D03*
X002689Y004182D03*
X002689Y004180D03*
X002689Y004179D03*
X002689Y004178D03*
X002689Y004177D03*
X002689Y004175D03*
X002689Y004174D03*
X002689Y004173D03*
X002689Y004172D03*
X002689Y004170D03*
X002689Y004169D03*
X002689Y004168D03*
X002689Y004167D03*
X002689Y004165D03*
X002689Y004164D03*
X002689Y004163D03*
X002689Y004162D03*
X002689Y004160D03*
X002689Y004159D03*
X002689Y004158D03*
X002689Y004157D03*
X002689Y004155D03*
X002689Y004154D03*
X002689Y004153D03*
X002689Y004152D03*
X002689Y004150D03*
X002689Y004149D03*
X002689Y004148D03*
X002689Y004147D03*
X002689Y004145D03*
X002689Y004144D03*
X002689Y004143D03*
X002689Y004142D03*
X002689Y004140D03*
X002689Y004139D03*
X002689Y004138D03*
X002689Y004137D03*
X002689Y004135D03*
X002689Y004134D03*
X002689Y004133D03*
X002689Y004132D03*
X002689Y004130D03*
X002689Y004129D03*
X002689Y004128D03*
X002689Y004127D03*
X002689Y004125D03*
X002689Y004124D03*
X002689Y004123D03*
X002689Y004122D03*
X002689Y004120D03*
X002689Y004119D03*
X002689Y004118D03*
X002689Y004117D03*
X002689Y004115D03*
X002689Y004114D03*
X002689Y004113D03*
X002689Y004112D03*
X002689Y004110D03*
X002689Y004109D03*
X002689Y004108D03*
X002689Y004107D03*
X002689Y004105D03*
X002689Y004104D03*
X002689Y004103D03*
X002689Y004102D03*
X002689Y004100D03*
X002689Y004099D03*
X002689Y004098D03*
X002689Y004097D03*
X002689Y004095D03*
X002689Y004094D03*
X002689Y004093D03*
X002689Y004092D03*
X002689Y004090D03*
X002689Y004089D03*
X002689Y004088D03*
X002689Y004087D03*
X002689Y004085D03*
X002689Y004084D03*
X002689Y004083D03*
X002689Y004082D03*
X002689Y004080D03*
X002689Y004079D03*
X002689Y004078D03*
X002689Y004077D03*
X002689Y004075D03*
X002689Y004074D03*
X002689Y004073D03*
X002689Y004072D03*
X002689Y004070D03*
X002689Y004069D03*
X002689Y004068D03*
X002689Y004067D03*
X002689Y004065D03*
X002689Y004064D03*
X002689Y004063D03*
X002689Y004062D03*
X002689Y004060D03*
X002689Y004059D03*
X002689Y004058D03*
X002689Y004057D03*
X002689Y004055D03*
X002689Y004054D03*
X002689Y004053D03*
X002689Y004052D03*
X002689Y004050D03*
X002689Y004049D03*
X002689Y004048D03*
X002689Y004047D03*
X002689Y004045D03*
X002689Y004044D03*
X002689Y004043D03*
X002689Y004042D03*
X002689Y004040D03*
X002689Y004039D03*
X002689Y004038D03*
X002689Y004037D03*
X002689Y004035D03*
X002689Y004034D03*
X002689Y004033D03*
X002689Y004032D03*
X002689Y004030D03*
X002689Y004029D03*
X002689Y004028D03*
X002689Y004027D03*
X002689Y004025D03*
X002689Y004024D03*
X002689Y004023D03*
X002689Y004022D03*
X002689Y004020D03*
X002689Y004019D03*
X002689Y004018D03*
X002689Y004017D03*
X002689Y004015D03*
X002689Y004014D03*
X002689Y004013D03*
X002689Y004012D03*
X002689Y004010D03*
X002689Y004009D03*
X002689Y004008D03*
X002689Y004007D03*
X002689Y004005D03*
X002689Y004004D03*
X002689Y004003D03*
X002689Y004002D03*
X002689Y004000D03*
X002689Y003999D03*
X002689Y003998D03*
X002689Y003997D03*
X002689Y003995D03*
X002689Y003994D03*
X002689Y003993D03*
X002689Y003992D03*
X002689Y003990D03*
X002689Y003989D03*
X002689Y003988D03*
X002689Y004192D03*
D82*
X002072Y004193D03*
X002072Y004192D03*
X002072Y004190D03*
X002072Y004189D03*
X002072Y004188D03*
X002072Y004187D03*
X002072Y004185D03*
X002072Y004184D03*
X002072Y004183D03*
X002072Y004182D03*
X002072Y004180D03*
X002072Y004179D03*
X002072Y004178D03*
X002072Y004177D03*
X002072Y004175D03*
X002072Y004174D03*
X002072Y004173D03*
X002072Y004172D03*
X002072Y004170D03*
X002072Y004169D03*
X002072Y004168D03*
X002072Y004167D03*
X002072Y004165D03*
X002072Y004164D03*
X002072Y004163D03*
X002072Y004162D03*
X002072Y004160D03*
X002072Y004159D03*
X002072Y004158D03*
X002072Y004157D03*
X002072Y004155D03*
X002072Y004154D03*
X002072Y004153D03*
X002072Y004152D03*
X002072Y004150D03*
X002072Y004149D03*
X002072Y004148D03*
X002072Y004147D03*
X002072Y004145D03*
X002072Y004144D03*
X002072Y004143D03*
X002072Y004142D03*
X002072Y004140D03*
X002072Y004139D03*
X002072Y004138D03*
X002072Y004137D03*
X002072Y004135D03*
X002072Y004134D03*
X002072Y004133D03*
X002072Y004132D03*
X002072Y004130D03*
X002072Y004129D03*
X002072Y004128D03*
X002072Y004127D03*
X002072Y004125D03*
X002072Y004124D03*
X002072Y004123D03*
X002072Y004122D03*
X002072Y004120D03*
X002072Y004119D03*
X002072Y004118D03*
X002072Y004117D03*
X002072Y004115D03*
X002072Y004114D03*
X002072Y004113D03*
X002072Y004112D03*
X002072Y004110D03*
X002072Y004109D03*
X002072Y004108D03*
X002072Y004107D03*
X002072Y004105D03*
X002072Y004104D03*
X002072Y004103D03*
X002072Y004102D03*
X002072Y004100D03*
X002072Y004099D03*
X002072Y004098D03*
X002072Y004097D03*
X002072Y004095D03*
X002072Y004094D03*
X002072Y004093D03*
X002072Y004092D03*
X002072Y004090D03*
X002072Y004089D03*
X002072Y004088D03*
X002072Y004087D03*
X002072Y004085D03*
X002072Y004084D03*
X002072Y004083D03*
X002072Y004082D03*
X002072Y004080D03*
X002072Y004079D03*
X002072Y004078D03*
X002072Y004077D03*
X002072Y004075D03*
X002072Y004074D03*
X002072Y004073D03*
X002072Y004072D03*
X002072Y004070D03*
X002072Y004069D03*
X002072Y004068D03*
X002072Y004067D03*
X002072Y004065D03*
X002072Y004064D03*
X002072Y004063D03*
X002072Y004062D03*
X002072Y004060D03*
X002072Y004059D03*
X002072Y004058D03*
X002072Y004057D03*
X002072Y004055D03*
X002072Y004054D03*
X002072Y004053D03*
X002072Y004052D03*
X002072Y004050D03*
X002072Y004049D03*
X002072Y004048D03*
X002072Y004047D03*
X002072Y004045D03*
X002072Y004044D03*
X002072Y004043D03*
X002072Y004042D03*
X002072Y004040D03*
X002072Y004039D03*
X002072Y004038D03*
X002072Y004037D03*
X002072Y004035D03*
X002072Y004034D03*
X002072Y004033D03*
X002072Y004032D03*
X002072Y004030D03*
X002072Y004029D03*
X002072Y004028D03*
X002072Y004027D03*
X002072Y004025D03*
X002072Y004024D03*
X002072Y004023D03*
X002072Y004022D03*
X002072Y004020D03*
X002072Y004019D03*
X002072Y004018D03*
X002072Y004017D03*
X002072Y004015D03*
X002072Y004014D03*
X002072Y004013D03*
X002072Y004012D03*
X002072Y004010D03*
X002072Y004009D03*
X002072Y004008D03*
X002072Y004007D03*
X002072Y004005D03*
X002072Y004004D03*
X002072Y004003D03*
X002072Y004002D03*
X002072Y004000D03*
X002072Y003999D03*
X002072Y003998D03*
X002072Y003997D03*
X002072Y003995D03*
X002072Y003994D03*
X002072Y003993D03*
X002072Y003992D03*
X002072Y003990D03*
X002072Y003989D03*
X002072Y003988D03*
X002072Y004194D03*
D83*
X002072Y004194D03*
X002072Y004194D03*
X002072Y004195D03*
X002072Y004193D03*
X002072Y004191D03*
X002072Y004191D03*
X002072Y004190D03*
X002072Y004189D03*
X002072Y004189D03*
X002072Y004188D03*
X002072Y004186D03*
X002072Y004186D03*
X002072Y004185D03*
X002072Y004184D03*
X002072Y004184D03*
X002072Y004183D03*
X002072Y004181D03*
X002072Y004181D03*
X002072Y004180D03*
X002072Y004179D03*
X002072Y004179D03*
X002072Y004178D03*
X002072Y004176D03*
X002072Y004176D03*
X002072Y004175D03*
X002072Y004174D03*
X002072Y004174D03*
X002072Y004173D03*
X002072Y004171D03*
X002072Y004171D03*
X002072Y004170D03*
X002072Y004169D03*
X002072Y004169D03*
X002072Y004168D03*
X002072Y004166D03*
X002072Y004166D03*
X002072Y004165D03*
X002072Y004164D03*
X002072Y004164D03*
X002072Y004163D03*
X002072Y004161D03*
X002072Y004161D03*
X002072Y004160D03*
X002072Y004159D03*
X002072Y004159D03*
X002072Y004158D03*
X002072Y004156D03*
X002072Y004156D03*
X002072Y004155D03*
X002072Y004154D03*
X002072Y004154D03*
X002072Y004153D03*
X002072Y004151D03*
X002072Y004151D03*
X002072Y004150D03*
X002072Y004149D03*
X002072Y004149D03*
X002072Y004148D03*
X002072Y004146D03*
X002072Y004146D03*
X002072Y004145D03*
X002072Y004144D03*
X002072Y004144D03*
X002072Y004143D03*
X002072Y004141D03*
X002072Y004141D03*
X002072Y004140D03*
X002072Y004139D03*
X002072Y004139D03*
X002072Y004138D03*
X002072Y004136D03*
X002072Y004136D03*
X002072Y004135D03*
X002072Y004134D03*
X002072Y004134D03*
X002072Y004133D03*
X002072Y004131D03*
X002072Y004131D03*
X002072Y004130D03*
X002072Y004129D03*
X002072Y004129D03*
X002072Y004128D03*
X002072Y004126D03*
X002072Y004126D03*
X002072Y004125D03*
X002072Y004124D03*
X002072Y004124D03*
X002072Y004123D03*
X002072Y004121D03*
X002072Y004121D03*
X002072Y004120D03*
X002072Y004119D03*
X002072Y004119D03*
X002072Y004118D03*
X002072Y004116D03*
X002072Y004116D03*
X002072Y004115D03*
X002072Y004114D03*
X002072Y004114D03*
X002072Y004113D03*
X002072Y004111D03*
X002072Y004111D03*
X002072Y004110D03*
X002072Y004109D03*
X002072Y004109D03*
X002072Y004108D03*
X002072Y004106D03*
X002072Y004106D03*
X002072Y004105D03*
X002072Y004104D03*
X002072Y004104D03*
X002072Y004103D03*
X002072Y004101D03*
X002072Y004101D03*
X002072Y004100D03*
X002072Y004099D03*
X002072Y004099D03*
X002072Y004098D03*
X002072Y004096D03*
X002072Y004096D03*
X002072Y004095D03*
X002072Y004094D03*
X002072Y004094D03*
X002072Y004093D03*
X002072Y004091D03*
X002072Y004091D03*
X002072Y004090D03*
X002072Y004089D03*
X002072Y004089D03*
X002072Y004088D03*
X002072Y004086D03*
X002072Y004086D03*
X002072Y004085D03*
X002072Y004084D03*
X002072Y004084D03*
X002072Y004083D03*
X002072Y004081D03*
X002072Y004081D03*
X002072Y004080D03*
X002072Y004079D03*
X002072Y004079D03*
X002072Y004078D03*
X002072Y004076D03*
X002072Y004076D03*
X002072Y004075D03*
X002072Y004074D03*
X002072Y004074D03*
X002072Y004073D03*
X002072Y004071D03*
X002072Y004071D03*
X002072Y004070D03*
X002072Y004069D03*
X002072Y004069D03*
X002072Y004068D03*
X002072Y004066D03*
X002072Y004066D03*
X002072Y004065D03*
X002072Y004064D03*
X002072Y004064D03*
X002072Y004063D03*
X002072Y004061D03*
X002072Y004061D03*
X002072Y004060D03*
X002072Y004059D03*
X002072Y004059D03*
X002072Y004058D03*
X002072Y004056D03*
X002072Y004056D03*
X002072Y004055D03*
X002072Y004054D03*
X002072Y004054D03*
X002072Y004053D03*
X002072Y004051D03*
X002072Y004051D03*
X002072Y004050D03*
X002072Y004049D03*
X002072Y004049D03*
X002072Y004048D03*
X002072Y004046D03*
X002072Y004046D03*
X002072Y004045D03*
X002072Y004044D03*
X002072Y004044D03*
X002072Y004043D03*
X002072Y004041D03*
X002072Y004041D03*
X002072Y004040D03*
X002072Y004039D03*
X002072Y004039D03*
X002072Y004038D03*
X002072Y004036D03*
X002072Y004036D03*
X002072Y004035D03*
X002072Y004034D03*
X002072Y004034D03*
X002072Y004033D03*
X002072Y004031D03*
X002072Y004031D03*
X002072Y004030D03*
X002072Y004029D03*
X002072Y004029D03*
X002072Y004028D03*
X002072Y004026D03*
X002072Y004026D03*
X002072Y004025D03*
X002072Y004024D03*
X002072Y004024D03*
X002072Y004023D03*
X002072Y004021D03*
X002072Y004021D03*
X002072Y004020D03*
X002072Y004019D03*
X002072Y004019D03*
X002072Y004018D03*
X002072Y004016D03*
X002072Y004016D03*
X002072Y004015D03*
X002072Y004014D03*
X002072Y004014D03*
X002072Y004013D03*
X002072Y004011D03*
X002072Y004011D03*
X002072Y004010D03*
X002072Y004009D03*
X002072Y004009D03*
X002072Y004008D03*
X002072Y004006D03*
X002072Y004006D03*
X002072Y004005D03*
X002072Y004004D03*
X002072Y004004D03*
X002072Y004003D03*
X002072Y004001D03*
X002072Y004001D03*
X002072Y004000D03*
X002072Y003999D03*
X002072Y003999D03*
X002072Y003998D03*
X002072Y003996D03*
X002072Y003996D03*
X002072Y003995D03*
X002072Y003994D03*
X002072Y003994D03*
X002072Y003993D03*
X002072Y003991D03*
X002072Y003991D03*
X002072Y003990D03*
X002072Y003989D03*
X002072Y003989D03*
D84*
X002072Y004198D03*
D85*
X002689Y004199D03*
D86*
X002072Y004200D03*
D87*
X002689Y004200D03*
D88*
X002689Y004201D03*
D89*
X002689Y004203D03*
D90*
X002689Y004204D03*
D91*
X002072Y004204D03*
D92*
X002689Y004205D03*
D93*
X002689Y004205D03*
D94*
X002072Y004205D03*
D95*
X002689Y004206D03*
D96*
X002072Y004206D03*
D97*
X002689Y004206D03*
D98*
X002689Y004207D03*
D99*
X002072Y004207D03*
D100*
X002689Y004208D03*
D101*
X002072Y004208D03*
D102*
X002689Y004208D03*
D103*
X002072Y004208D03*
D104*
X002689Y004209D03*
D105*
X002072Y004209D03*
D106*
X002689Y004209D03*
D107*
X002072Y004209D03*
D108*
X002689Y004209D03*
D109*
X002072Y004209D03*
D110*
X002689Y004210D03*
D111*
X002072Y004210D03*
D112*
X002689Y004210D03*
D113*
X002072Y004210D03*
D114*
X002689Y004211D03*
D115*
X002072Y004211D03*
D116*
X002689Y004211D03*
D117*
X002689Y004212D03*
D118*
X002072Y004212D03*
D119*
X002689Y004213D03*
D120*
X002072Y004213D03*
D121*
X002689Y004213D03*
D122*
X002072Y004213D03*
D123*
X002689Y004214D03*
D124*
X002072Y004214D03*
D125*
X002689Y004214D03*
D126*
X002689Y004214D03*
D127*
X002072Y004214D03*
D128*
X002687Y004215D03*
D129*
X002072Y004215D03*
D130*
X002688Y004215D03*
X002688Y004217D03*
D131*
X002072Y004215D03*
D132*
X002688Y004216D03*
X002688Y004216D03*
D133*
X002072Y004216D03*
D134*
X002072Y004217D03*
D135*
X002688Y004218D03*
X002688Y004219D03*
D136*
X002072Y004218D03*
D137*
X002688Y004218D03*
D138*
X002072Y004218D03*
D139*
X002068Y004219D03*
X002068Y004219D03*
X002068Y004220D03*
D140*
X002688Y004220D03*
X002688Y004219D03*
D141*
X002688Y004219D03*
X002688Y004220D03*
D142*
X002068Y004219D03*
D143*
X002068Y004220D03*
X002068Y004222D03*
X002697Y004279D03*
D144*
X002688Y004221D03*
X002688Y004221D03*
D145*
X002697Y004279D03*
X002697Y004279D03*
X002697Y004280D03*
X002068Y004221D03*
X002068Y004221D03*
D146*
X002688Y004222D03*
D147*
X002689Y004223D03*
X002689Y004224D03*
D148*
X002068Y004224D03*
X002068Y004224D03*
X002068Y004223D03*
D149*
X002689Y004223D03*
D150*
X002068Y004223D03*
D151*
X002689Y004224D03*
X002689Y004225D03*
D152*
X002689Y004225D03*
X002689Y004224D03*
D153*
X002697Y004282D03*
X002697Y004283D03*
X002067Y004225D03*
X002067Y004224D03*
D154*
X002067Y004225D03*
X002067Y004226D03*
X002697Y004283D03*
D155*
X002689Y004226D03*
X002689Y004226D03*
D156*
X002698Y004284D03*
X002698Y004284D03*
X002698Y004285D03*
X002067Y004229D03*
X002067Y004228D03*
X002067Y004226D03*
D157*
X002689Y004227D03*
D158*
X002698Y004284D03*
X002067Y004228D03*
X002067Y004227D03*
D159*
X002689Y004228D03*
X002689Y004229D03*
X002689Y004229D03*
D160*
X002689Y004228D03*
D161*
X002067Y004229D03*
X002067Y004230D03*
D162*
X002690Y004230D03*
X002690Y004229D03*
D163*
X002067Y004229D03*
X002067Y004230D03*
D164*
X002690Y004230D03*
D165*
X002690Y004231D03*
X002690Y004231D03*
D166*
X002698Y004288D03*
X002698Y004289D03*
X002067Y004233D03*
X002067Y004231D03*
X002067Y004231D03*
D167*
X002690Y004232D03*
D168*
X002698Y004287D03*
X002698Y004288D03*
X002067Y004232D03*
D169*
X002690Y004233D03*
X002690Y004234D03*
X002690Y004234D03*
D170*
X002690Y004233D03*
D171*
X002066Y004233D03*
X002066Y004234D03*
D172*
X002066Y004234D03*
X002066Y004234D03*
D173*
X002690Y004234D03*
X002690Y004235D03*
D174*
X002690Y004235D03*
D175*
X002699Y004291D03*
X002699Y004291D03*
X002066Y004236D03*
X002066Y004236D03*
X002066Y004235D03*
D176*
X002066Y004235D03*
X002699Y004290D03*
D177*
X002691Y004238D03*
X002691Y004236D03*
X002691Y004236D03*
D178*
X002691Y004237D03*
D179*
X002699Y004292D03*
X002699Y004293D03*
X002066Y004238D03*
X002066Y004237D03*
D180*
X002066Y004238D03*
X002066Y004239D03*
X002699Y004293D03*
X002699Y004294D03*
D181*
X002691Y004238D03*
D182*
X002691Y004239D03*
X002691Y004239D03*
D183*
X002066Y004240D03*
X002066Y004241D03*
X002066Y004239D03*
D184*
X002691Y004239D03*
X002691Y004240D03*
D185*
X002066Y004240D03*
X002066Y004239D03*
D186*
X002691Y004240D03*
D187*
X002691Y004241D03*
X002691Y004241D03*
X002691Y004243D03*
D188*
X002699Y004296D03*
X002699Y004296D03*
X002065Y004243D03*
X002065Y004241D03*
D189*
X002691Y004242D03*
D190*
X002699Y004295D03*
X002699Y004297D03*
X002065Y004243D03*
X002065Y004242D03*
D191*
X002691Y004243D03*
D192*
X002691Y004244D03*
X002691Y004244D03*
D193*
X002065Y004245D03*
X002065Y004244D03*
X002065Y004244D03*
D194*
X002692Y004244D03*
X002692Y004245D03*
D195*
X002065Y004244D03*
D196*
X002692Y004245D03*
X002692Y004246D03*
D197*
X002700Y004299D03*
X002065Y004247D03*
X002065Y004245D03*
D198*
X002065Y004246D03*
X002065Y004246D03*
X002700Y004299D03*
X002700Y004300D03*
D199*
X002692Y004248D03*
X002692Y004246D03*
D200*
X002692Y004247D03*
D201*
X002700Y004301D03*
X002700Y004301D03*
X002065Y004249D03*
X002065Y004249D03*
X002065Y004248D03*
D202*
X002692Y004248D03*
D203*
X002700Y004300D03*
X002700Y004302D03*
X002065Y004248D03*
D204*
X002692Y004249D03*
X002692Y004249D03*
D205*
X002693Y004249D03*
X002693Y004250D03*
D206*
X002064Y004250D03*
X002064Y004249D03*
D207*
X002693Y004250D03*
X002693Y004251D03*
D208*
X002064Y004251D03*
X002064Y004250D03*
D209*
X002693Y004251D03*
X002693Y004253D03*
D210*
X002701Y004304D03*
X002701Y004305D03*
X002064Y004254D03*
X002064Y004253D03*
X002064Y004251D03*
D211*
X002693Y004252D03*
D212*
X002701Y004304D03*
X002701Y004305D03*
X002064Y004253D03*
X002064Y004252D03*
D213*
X002693Y004253D03*
X002693Y004254D03*
D214*
X002693Y004254D03*
X002693Y004254D03*
D215*
X002064Y004255D03*
X002064Y004254D03*
D216*
X002064Y004254D03*
X002064Y004255D03*
D217*
X002693Y004256D03*
X002693Y004255D03*
D218*
X002693Y004255D03*
D219*
X002701Y004308D03*
X002701Y004309D03*
X002064Y004258D03*
X002064Y004256D03*
X002064Y004256D03*
D220*
X002694Y004256D03*
X002694Y004258D03*
D221*
X002694Y004257D03*
D222*
X002701Y004308D03*
X002064Y004257D03*
D223*
X002694Y004258D03*
X002694Y004259D03*
D224*
X002701Y004309D03*
X002701Y004310D03*
X002063Y004259D03*
X002063Y004258D03*
D225*
X002694Y004259D03*
X002694Y004259D03*
D226*
X002701Y004309D03*
X002701Y004310D03*
X002063Y004259D03*
X002063Y004259D03*
D227*
X002694Y004260D03*
X002694Y004261D03*
D228*
X002063Y004261D03*
X002063Y004261D03*
X002063Y004260D03*
D229*
X002694Y004260D03*
D230*
X002063Y004260D03*
D231*
X002694Y004261D03*
X002694Y004263D03*
D232*
X002694Y004263D03*
X002694Y004262D03*
D233*
X002702Y004313D03*
X002063Y004263D03*
X002063Y004262D03*
D234*
X002063Y004263D03*
X002063Y004264D03*
X002702Y004313D03*
X002702Y004314D03*
X002702Y004314D03*
D235*
X002695Y004264D03*
X002695Y004264D03*
D236*
X002063Y004265D03*
X002063Y004266D03*
X002063Y004264D03*
D237*
X002695Y004264D03*
D238*
X002063Y004264D03*
X002063Y004265D03*
D239*
X002695Y004266D03*
X002695Y004265D03*
D240*
X002695Y004265D03*
D241*
X002695Y004266D03*
X002695Y004268D03*
D242*
X002702Y004316D03*
X002702Y004316D03*
X002062Y004268D03*
X002062Y004266D03*
D243*
X002695Y004267D03*
X002695Y004268D03*
D244*
X002702Y004317D03*
X002062Y004268D03*
X002062Y004267D03*
D245*
X002695Y004269D03*
X002695Y004269D03*
D246*
X002703Y004318D03*
X002703Y004319D03*
X002703Y004319D03*
X002062Y004270D03*
X002062Y004269D03*
X002062Y004269D03*
D247*
X002695Y004269D03*
D248*
X002703Y004318D03*
X002062Y004269D03*
D249*
X002696Y004270D03*
X002696Y004271D03*
X002696Y004271D03*
D250*
X002696Y004270D03*
D251*
X002062Y004270D03*
X002062Y004272D03*
D252*
X002062Y004271D03*
X002062Y004271D03*
D253*
X002696Y004272D03*
X002696Y004273D03*
D254*
X002696Y004273D03*
D255*
X002703Y004321D03*
X002703Y004321D03*
X002703Y004323D03*
X002062Y004274D03*
X002062Y004274D03*
X002062Y004273D03*
D256*
X002062Y004273D03*
X002703Y004322D03*
D257*
X002696Y004274D03*
X002696Y004274D03*
D258*
X002696Y004274D03*
D259*
X002061Y004274D03*
X002061Y004275D03*
D260*
X002696Y004276D03*
X002696Y004276D03*
X002696Y004275D03*
D261*
X002061Y004276D03*
X002061Y004275D03*
D262*
X002696Y004275D03*
D263*
X002704Y004325D03*
X002704Y004326D03*
X002061Y004279D03*
X002061Y004278D03*
X002061Y004276D03*
D264*
X002696Y004277D03*
X002696Y004278D03*
D265*
X002704Y004324D03*
X002704Y004325D03*
X002061Y004278D03*
X002061Y004277D03*
D266*
X002696Y004278D03*
D267*
X002704Y004326D03*
X002704Y004328D03*
X002061Y004280D03*
X002061Y004279D03*
D268*
X002061Y004279D03*
X002061Y004280D03*
X002704Y004327D03*
D269*
X002697Y004280D03*
D270*
X002697Y004281D03*
X002697Y004281D03*
D271*
X002061Y004281D03*
X002061Y004281D03*
X002061Y004283D03*
D272*
X002061Y004282D03*
D273*
X002060Y004283D03*
X002060Y004284D03*
X002704Y004329D03*
X002704Y004330D03*
D274*
X002704Y004330D03*
X002704Y004331D03*
X002060Y004284D03*
X002060Y004284D03*
D275*
X002060Y004285D03*
X002060Y004286D03*
X002060Y004286D03*
D276*
X002698Y004285D03*
D277*
X002060Y004285D03*
D278*
X002698Y004286D03*
X002698Y004286D03*
D279*
X002705Y004333D03*
X002705Y004334D03*
X002060Y004288D03*
X002060Y004287D03*
D280*
X002060Y004288D03*
X002060Y004289D03*
X002705Y004334D03*
X002705Y004334D03*
D281*
X002698Y004290D03*
X002698Y004289D03*
D282*
X002705Y004335D03*
X002705Y004336D03*
X002060Y004291D03*
X002060Y004290D03*
X002060Y004289D03*
D283*
X002698Y004289D03*
D284*
X002705Y004335D03*
X002060Y004290D03*
X002060Y004289D03*
D285*
X002059Y004291D03*
X002059Y004293D03*
D286*
X002059Y004293D03*
X002059Y004292D03*
D287*
X002059Y004294D03*
X002059Y004294D03*
X002059Y004295D03*
X002706Y004339D03*
X002706Y004339D03*
D288*
X002699Y004295D03*
X002699Y004294D03*
D289*
X002699Y004294D03*
D290*
X002706Y004338D03*
X002706Y004339D03*
X002059Y004294D03*
D291*
X002059Y004295D03*
X002059Y004297D03*
D292*
X002059Y004296D03*
X002059Y004296D03*
D293*
X002700Y004298D03*
X002700Y004299D03*
D294*
X002706Y004341D03*
X002706Y004343D03*
X002059Y004299D03*
X002059Y004299D03*
X002059Y004298D03*
D295*
X002700Y004298D03*
D296*
X002706Y004342D03*
X002706Y004343D03*
X002059Y004298D03*
D297*
X002058Y004299D03*
X002058Y004300D03*
X002706Y004344D03*
D298*
X002706Y004344D03*
X002706Y004344D03*
X002058Y004301D03*
X002058Y004300D03*
D299*
X002058Y004301D03*
X002058Y004303D03*
X002058Y004304D03*
D300*
X002058Y004303D03*
X002058Y004302D03*
D301*
X002700Y004303D03*
X002700Y004304D03*
D302*
X002700Y004303D03*
D303*
X002707Y004346D03*
X002707Y004348D03*
X002058Y004305D03*
X002058Y004304D03*
D304*
X002058Y004304D03*
X002058Y004305D03*
X002707Y004347D03*
X002707Y004348D03*
D305*
X002701Y004306D03*
X002701Y004306D03*
D306*
X002058Y004306D03*
X002058Y004306D03*
X002058Y004308D03*
D307*
X002701Y004307D03*
D308*
X002058Y004307D03*
D309*
X002057Y004308D03*
X002057Y004309D03*
X002707Y004350D03*
D310*
X002707Y004350D03*
X002707Y004351D03*
X002707Y004351D03*
X002057Y004309D03*
X002057Y004309D03*
D311*
X002057Y004310D03*
X002057Y004311D03*
X002057Y004311D03*
X002708Y004353D03*
D312*
X002708Y004353D03*
X002708Y004352D03*
X002057Y004310D03*
D313*
X002701Y004311D03*
X002701Y004311D03*
D314*
X002701Y004312D03*
D315*
X002057Y004313D03*
X002057Y004312D03*
D316*
X002057Y004313D03*
X002057Y004314D03*
D317*
X002057Y004314D03*
X002057Y004315D03*
X002057Y004316D03*
X002708Y004355D03*
X002708Y004356D03*
X002708Y004356D03*
D318*
X002702Y004315D03*
X002702Y004314D03*
D319*
X002708Y004355D03*
X002057Y004315D03*
X002057Y004314D03*
D320*
X002702Y004315D03*
D321*
X002056Y004316D03*
X002056Y004318D03*
D322*
X002056Y004318D03*
X002056Y004317D03*
D323*
X002056Y004319D03*
X002056Y004319D03*
X002056Y004320D03*
X002709Y004359D03*
X002709Y004359D03*
X002709Y004360D03*
D324*
X002703Y004320D03*
X002703Y004319D03*
D325*
X002709Y004359D03*
X002056Y004319D03*
D326*
X002703Y004320D03*
D327*
X002709Y004360D03*
X002056Y004322D03*
X002056Y004320D03*
D328*
X002056Y004321D03*
X002056Y004321D03*
X002709Y004361D03*
X002709Y004361D03*
D329*
X002056Y004324D03*
X002056Y004324D03*
X002056Y004323D03*
D330*
X002703Y004323D03*
D331*
X002056Y004323D03*
D332*
X002703Y004324D03*
X002703Y004324D03*
D333*
X002709Y004364D03*
X002055Y004325D03*
X002055Y004324D03*
D334*
X002055Y004325D03*
X002055Y004326D03*
X002709Y004364D03*
X002709Y004364D03*
X002709Y004365D03*
D335*
X002055Y004329D03*
X002055Y004328D03*
X002055Y004326D03*
D336*
X002055Y004327D03*
X002055Y004328D03*
D337*
X002704Y004328D03*
D338*
X002704Y004329D03*
X002704Y004329D03*
D339*
X002710Y004368D03*
X002710Y004369D03*
X002055Y004330D03*
X002055Y004329D03*
D340*
X002055Y004329D03*
X002055Y004330D03*
X002710Y004367D03*
X002710Y004368D03*
D341*
X002710Y004369D03*
X002710Y004370D03*
X002055Y004333D03*
X002055Y004331D03*
X002055Y004331D03*
D342*
X002705Y004331D03*
X002705Y004333D03*
D343*
X002705Y004332D03*
D344*
X002710Y004369D03*
X002055Y004332D03*
D345*
X002054Y004333D03*
X002054Y004334D03*
D346*
X002054Y004334D03*
X002054Y004334D03*
D347*
X002054Y004335D03*
X002054Y004336D03*
X002054Y004336D03*
X002711Y004373D03*
X002711Y004374D03*
D348*
X002711Y004373D03*
X002711Y004372D03*
X002054Y004335D03*
D349*
X002705Y004336D03*
X002705Y004338D03*
D350*
X002705Y004337D03*
D351*
X002054Y004338D03*
X002054Y004337D03*
D352*
X002054Y004338D03*
X002054Y004339D03*
D353*
X002054Y004339D03*
X002054Y004340D03*
X002054Y004341D03*
X002711Y004376D03*
X002711Y004376D03*
D354*
X002711Y004375D03*
X002711Y004377D03*
X002054Y004340D03*
X002054Y004339D03*
D355*
X002706Y004340D03*
X002706Y004341D03*
D356*
X002706Y004340D03*
D357*
X002711Y004378D03*
X002711Y004379D03*
X002053Y004343D03*
X002053Y004341D03*
D358*
X002053Y004342D03*
X002053Y004343D03*
X002711Y004378D03*
D359*
X002053Y004345D03*
X002053Y004344D03*
X002053Y004344D03*
D360*
X002053Y004344D03*
D361*
X002706Y004345D03*
X002706Y004346D03*
D362*
X002706Y004345D03*
D363*
X002712Y004380D03*
X002712Y004382D03*
X002053Y004347D03*
X002053Y004345D03*
D364*
X002053Y004346D03*
X002053Y004346D03*
X002712Y004381D03*
X002712Y004381D03*
D365*
X002053Y004349D03*
X002053Y004349D03*
X002053Y004348D03*
D366*
X002053Y004348D03*
D367*
X002707Y004349D03*
X002707Y004349D03*
D368*
X002707Y004349D03*
D369*
X002712Y004384D03*
X002712Y004385D03*
X002052Y004350D03*
X002052Y004349D03*
D370*
X002052Y004350D03*
X002052Y004351D03*
X002712Y004384D03*
X002712Y004385D03*
D371*
X002713Y004386D03*
X002713Y004386D03*
X002052Y004354D03*
X002052Y004353D03*
X002052Y004351D03*
D372*
X002052Y004352D03*
X002052Y004353D03*
X002713Y004387D03*
D373*
X002708Y004354D03*
X002708Y004354D03*
D374*
X002052Y004355D03*
X002052Y004354D03*
D375*
X002708Y004354D03*
D376*
X002052Y004354D03*
X002052Y004355D03*
D377*
X002052Y004356D03*
X002052Y004356D03*
X002052Y004358D03*
X002713Y004389D03*
X002713Y004390D03*
D378*
X002708Y004358D03*
X002708Y004357D03*
D379*
X002713Y004389D03*
X002713Y004390D03*
X002052Y004357D03*
D380*
X002708Y004358D03*
D381*
X002051Y004358D03*
X002051Y004359D03*
D382*
X002051Y004359D03*
X002051Y004359D03*
D383*
X002051Y004360D03*
X002051Y004361D03*
X002051Y004361D03*
X002714Y004393D03*
X002714Y004394D03*
X002714Y004394D03*
D384*
X002714Y004393D03*
X002051Y004360D03*
D385*
X002709Y004362D03*
X002709Y004363D03*
D386*
X002714Y004394D03*
X002714Y004395D03*
X002051Y004363D03*
X002051Y004362D03*
D387*
X002709Y004363D03*
D388*
X002714Y004395D03*
X002051Y004364D03*
X002051Y004363D03*
D389*
X002051Y004364D03*
X002051Y004365D03*
X002051Y004366D03*
D390*
X002051Y004365D03*
X002051Y004364D03*
D391*
X002710Y004365D03*
D392*
X002710Y004366D03*
X002710Y004366D03*
D393*
X002714Y004398D03*
X002714Y004399D03*
X002714Y004399D03*
X002050Y004368D03*
X002050Y004366D03*
D394*
X002050Y004367D03*
X002050Y004368D03*
X002714Y004398D03*
D395*
X002050Y004370D03*
X002050Y004369D03*
X002050Y004369D03*
D396*
X002050Y004369D03*
D397*
X002710Y004370D03*
D398*
X002715Y004402D03*
X002050Y004372D03*
X002050Y004370D03*
D399*
X002710Y004371D03*
X002710Y004371D03*
D400*
X002715Y004401D03*
X002715Y004401D03*
X002715Y004403D03*
X002050Y004371D03*
X002050Y004371D03*
D401*
X002050Y004373D03*
X002050Y004374D03*
X002050Y004374D03*
X002715Y004404D03*
X002715Y004404D03*
D402*
X002715Y004403D03*
X002050Y004373D03*
D403*
X002711Y004374D03*
X002711Y004375D03*
D404*
X002711Y004374D03*
D405*
X002049Y004374D03*
X002049Y004375D03*
D406*
X002049Y004375D03*
X002049Y004376D03*
D407*
X002049Y004376D03*
X002049Y004378D03*
X002049Y004379D03*
X002716Y004406D03*
X002716Y004406D03*
X002716Y004408D03*
D408*
X002716Y004407D03*
X002049Y004378D03*
X002049Y004377D03*
D409*
X002711Y004379D03*
X002711Y004380D03*
D410*
X002049Y004380D03*
X002049Y004379D03*
D411*
X002711Y004379D03*
D412*
X002049Y004379D03*
X002049Y004380D03*
D413*
X002049Y004381D03*
X002049Y004381D03*
X002049Y004383D03*
X002716Y004410D03*
X002716Y004411D03*
D414*
X002716Y004410D03*
X002716Y004409D03*
X002049Y004382D03*
D415*
X002712Y004383D03*
X002712Y004384D03*
D416*
X002712Y004383D03*
D417*
X002716Y004412D03*
X002048Y004384D03*
X002048Y004383D03*
D418*
X002048Y004384D03*
X002048Y004384D03*
X002716Y004411D03*
X002716Y004413D03*
D419*
X002048Y004386D03*
X002048Y004386D03*
X002048Y004385D03*
D420*
X002048Y004385D03*
D421*
X002048Y004387D03*
X002048Y004388D03*
X002717Y004414D03*
X002717Y004415D03*
D422*
X002713Y004389D03*
X002713Y004388D03*
D423*
X002717Y004415D03*
X002717Y004416D03*
X002048Y004389D03*
X002048Y004388D03*
D424*
X002713Y004388D03*
D425*
X002048Y004389D03*
X002048Y004390D03*
X002048Y004391D03*
D426*
X002048Y004390D03*
X002048Y004389D03*
D427*
X002713Y004391D03*
X002713Y004391D03*
D428*
X002717Y004419D03*
X002717Y004419D03*
X002047Y004393D03*
X002047Y004391D03*
D429*
X002713Y004392D03*
D430*
X002717Y004418D03*
X002717Y004419D03*
X002047Y004393D03*
X002047Y004392D03*
D431*
X002047Y004394D03*
X002047Y004394D03*
X002047Y004395D03*
X002718Y004420D03*
X002718Y004421D03*
D432*
X002718Y004420D03*
X002047Y004394D03*
D433*
X002047Y004395D03*
X002047Y004397D03*
D434*
X002714Y004396D03*
X002714Y004396D03*
D435*
X002047Y004396D03*
X002047Y004396D03*
D436*
X002714Y004397D03*
D437*
X002718Y004424D03*
X002718Y004424D03*
X002047Y004399D03*
X002047Y004399D03*
X002047Y004398D03*
D438*
X002047Y004398D03*
X002718Y004423D03*
X002718Y004424D03*
D439*
X002715Y004400D03*
X002715Y004399D03*
D440*
X002046Y004399D03*
X002046Y004400D03*
D441*
X002715Y004400D03*
D442*
X002046Y004401D03*
X002046Y004400D03*
D443*
X002046Y004401D03*
X002046Y004403D03*
X002046Y004404D03*
X002719Y004426D03*
X002719Y004428D03*
D444*
X002719Y004428D03*
X002719Y004427D03*
X002046Y004403D03*
X002046Y004402D03*
D445*
X002046Y004404D03*
X002046Y004405D03*
X002719Y004429D03*
X002719Y004429D03*
D446*
X002715Y004405D03*
X002715Y004404D03*
D447*
X002719Y004429D03*
X002046Y004405D03*
X002046Y004404D03*
D448*
X002715Y004405D03*
D449*
X002046Y004406D03*
X002046Y004406D03*
X002046Y004408D03*
D450*
X002046Y004407D03*
D451*
X002716Y004408D03*
D452*
X002719Y004432D03*
X002719Y004433D03*
X002045Y004409D03*
X002045Y004408D03*
D453*
X002716Y004409D03*
X002716Y004409D03*
D454*
X002719Y004431D03*
X002719Y004433D03*
X002045Y004409D03*
X002045Y004409D03*
D455*
X002045Y004410D03*
X002045Y004411D03*
X002045Y004411D03*
D456*
X002045Y004410D03*
D457*
X002045Y004412D03*
X002045Y004413D03*
X002720Y004435D03*
D458*
X002720Y004435D03*
X002720Y004436D03*
X002720Y004436D03*
X002045Y004414D03*
X002045Y004413D03*
D459*
X002716Y004413D03*
D460*
X002716Y004414D03*
X002716Y004414D03*
D461*
X002720Y004438D03*
X002045Y004416D03*
X002045Y004415D03*
X002045Y004414D03*
D462*
X002045Y004414D03*
X002045Y004415D03*
X002720Y004437D03*
X002720Y004438D03*
D463*
X002717Y004418D03*
X002717Y004416D03*
D464*
X002044Y004416D03*
X002044Y004418D03*
D465*
X002717Y004417D03*
D466*
X002044Y004418D03*
X002044Y004417D03*
D467*
X002044Y004419D03*
X002044Y004419D03*
X002044Y004420D03*
X002721Y004440D03*
X002721Y004441D03*
X002721Y004441D03*
D468*
X002721Y004440D03*
X002044Y004419D03*
D469*
X002044Y004420D03*
X002044Y004422D03*
D470*
X002044Y004421D03*
X002044Y004421D03*
D471*
X002718Y004421D03*
X002718Y004423D03*
D472*
X002718Y004422D03*
D473*
X002721Y004444D03*
X002721Y004444D03*
X002721Y004445D03*
X002044Y004424D03*
X002044Y004424D03*
X002044Y004423D03*
D474*
X002044Y004423D03*
X002721Y004444D03*
D475*
X002721Y004445D03*
X002043Y004425D03*
X002043Y004424D03*
D476*
X002718Y004425D03*
X002718Y004426D03*
D477*
X002721Y004446D03*
X002721Y004446D03*
X002043Y004426D03*
X002043Y004425D03*
D478*
X002718Y004425D03*
D479*
X002043Y004426D03*
X002043Y004428D03*
X002043Y004429D03*
D480*
X002043Y004428D03*
X002043Y004427D03*
D481*
X002043Y004429D03*
X002043Y004430D03*
X002722Y004449D03*
X002722Y004449D03*
X002722Y004450D03*
D482*
X002722Y004449D03*
X002043Y004430D03*
X002043Y004429D03*
D483*
X002719Y004430D03*
X002719Y004431D03*
D484*
X002719Y004430D03*
D485*
X002043Y004431D03*
X002043Y004431D03*
X002043Y004433D03*
D486*
X002043Y004432D03*
D487*
X002042Y004433D03*
X002042Y004434D03*
X002722Y004452D03*
X002722Y004453D03*
D488*
X002720Y004434D03*
X002720Y004434D03*
D489*
X002722Y004453D03*
X002722Y004454D03*
X002042Y004434D03*
X002042Y004434D03*
D490*
X002720Y004434D03*
D491*
X002723Y004454D03*
X002723Y004455D03*
X002042Y004436D03*
X002042Y004436D03*
X002042Y004435D03*
D492*
X002042Y004435D03*
X002723Y004454D03*
D493*
X002042Y004438D03*
X002042Y004437D03*
D494*
X002042Y004438D03*
X002042Y004439D03*
D495*
X002720Y004439D03*
X002720Y004439D03*
D496*
X002723Y004458D03*
X002723Y004459D03*
X002042Y004441D03*
X002042Y004440D03*
X002042Y004439D03*
D497*
X002720Y004439D03*
D498*
X002723Y004457D03*
X002723Y004458D03*
X002042Y004440D03*
X002042Y004439D03*
D499*
X002041Y004441D03*
X002041Y004443D03*
D500*
X002721Y004443D03*
X002721Y004442D03*
D501*
X002041Y004443D03*
X002041Y004442D03*
D502*
X002721Y004443D03*
D503*
X002724Y004461D03*
X002724Y004461D03*
X002041Y004445D03*
X002041Y004444D03*
X002041Y004444D03*
D504*
X002041Y004444D03*
X002724Y004460D03*
X002724Y004462D03*
D505*
X002724Y004463D03*
X002041Y004447D03*
X002041Y004445D03*
D506*
X002041Y004446D03*
X002041Y004446D03*
X002724Y004463D03*
X002724Y004464D03*
D507*
X002721Y004448D03*
X002721Y004447D03*
D508*
X002721Y004448D03*
D509*
X002041Y004449D03*
X002041Y004449D03*
X002041Y004448D03*
D510*
X002041Y004448D03*
D511*
X002040Y004449D03*
X002040Y004450D03*
X002724Y004465D03*
X002724Y004467D03*
D512*
X002724Y004466D03*
X002724Y004466D03*
X002040Y004451D03*
X002040Y004450D03*
D513*
X002722Y004450D03*
D514*
X002722Y004451D03*
X002722Y004451D03*
D515*
X002040Y004451D03*
X002040Y004453D03*
X002040Y004454D03*
D516*
X002040Y004453D03*
X002040Y004452D03*
D517*
X002040Y004454D03*
X002040Y004455D03*
X002725Y004469D03*
X002725Y004470D03*
D518*
X002725Y004470D03*
X002725Y004469D03*
X002040Y004455D03*
X002040Y004454D03*
D519*
X002723Y004455D03*
D520*
X002723Y004456D03*
X002723Y004456D03*
D521*
X002725Y004471D03*
X002725Y004471D03*
X002040Y004458D03*
X002040Y004456D03*
X002040Y004456D03*
D522*
X002040Y004457D03*
X002725Y004472D03*
D523*
X002039Y004459D03*
X002039Y004458D03*
D524*
X002039Y004459D03*
X002039Y004459D03*
D525*
X002723Y004460D03*
X002723Y004459D03*
D526*
X002723Y004459D03*
D527*
X002726Y004474D03*
X002726Y004475D03*
X002039Y004461D03*
X002039Y004461D03*
X002039Y004460D03*
D528*
X002039Y004460D03*
X002726Y004474D03*
X002726Y004475D03*
D529*
X002039Y004463D03*
X002039Y004462D03*
D530*
X002039Y004463D03*
X002039Y004464D03*
D531*
X002724Y004465D03*
X002724Y004464D03*
D532*
X002726Y004478D03*
X002726Y004479D03*
X002726Y004479D03*
X002039Y004466D03*
X002039Y004465D03*
X002039Y004464D03*
D533*
X002724Y004464D03*
D534*
X002726Y004478D03*
X002039Y004465D03*
X002039Y004464D03*
D535*
X002038Y004466D03*
X002038Y004468D03*
X002726Y004480D03*
D536*
X002726Y004480D03*
X002726Y004479D03*
X002038Y004468D03*
X002038Y004467D03*
D537*
X002725Y004468D03*
X002725Y004469D03*
D538*
X002725Y004468D03*
D539*
X002038Y004469D03*
X002038Y004469D03*
X002038Y004470D03*
D540*
X002038Y004469D03*
D541*
X002038Y004470D03*
X002038Y004472D03*
X002727Y004483D03*
D542*
X002727Y004483D03*
X002727Y004484D03*
X002727Y004484D03*
X002038Y004471D03*
X002038Y004471D03*
D543*
X002725Y004473D03*
X002725Y004474D03*
D544*
X002038Y004474D03*
X002038Y004474D03*
X002038Y004473D03*
D545*
X002725Y004473D03*
D546*
X002038Y004473D03*
D547*
X002037Y004474D03*
X002037Y004475D03*
X002727Y004487D03*
D548*
X002727Y004488D03*
X002727Y004486D03*
X002727Y004486D03*
X002037Y004476D03*
X002037Y004475D03*
D549*
X002726Y004476D03*
X002726Y004476D03*
D550*
X002728Y004489D03*
X002728Y004489D03*
X002037Y004479D03*
X002037Y004478D03*
X002037Y004476D03*
D551*
X002726Y004477D03*
D552*
X002728Y004488D03*
X002037Y004478D03*
X002037Y004477D03*
D553*
X002037Y004479D03*
X002037Y004480D03*
D554*
X002037Y004480D03*
X002037Y004479D03*
D555*
X002726Y004481D03*
X002726Y004481D03*
D556*
X002728Y004491D03*
X002728Y004491D03*
X002728Y004493D03*
X002037Y004483D03*
X002037Y004481D03*
X002037Y004481D03*
D557*
X002726Y004482D03*
D558*
X002728Y004492D03*
X002037Y004482D03*
D559*
X002036Y004483D03*
X002036Y004484D03*
D560*
X002036Y004484D03*
X002036Y004484D03*
D561*
X002727Y004484D03*
X002727Y004485D03*
D562*
X002727Y004485D03*
D563*
X002729Y004495D03*
X002729Y004496D03*
X002036Y004486D03*
X002036Y004486D03*
X002036Y004485D03*
D564*
X002036Y004485D03*
X002729Y004494D03*
X002729Y004495D03*
D565*
X002729Y004497D03*
X002036Y004488D03*
X002036Y004487D03*
D566*
X002036Y004488D03*
X002036Y004489D03*
X002729Y004496D03*
X002729Y004498D03*
D567*
X002036Y004491D03*
X002036Y004490D03*
X002036Y004489D03*
D568*
X002728Y004489D03*
X002728Y004490D03*
D569*
X002036Y004490D03*
X002036Y004489D03*
D570*
X002728Y004490D03*
D571*
X002729Y004500D03*
X002729Y004501D03*
X002035Y004493D03*
X002035Y004491D03*
D572*
X002035Y004492D03*
X002035Y004493D03*
X002729Y004499D03*
X002729Y004500D03*
D573*
X002728Y004493D03*
D574*
X002728Y004494D03*
X002728Y004494D03*
D575*
X002035Y004495D03*
X002035Y004494D03*
X002035Y004494D03*
D576*
X002035Y004494D03*
D577*
X002035Y004495D03*
X002035Y004497D03*
X002730Y004503D03*
X002730Y004504D03*
D578*
X002730Y004504D03*
X002730Y004504D03*
X002035Y004496D03*
X002035Y004496D03*
D579*
X002035Y004498D03*
X002035Y004499D03*
X002035Y004499D03*
X002730Y004505D03*
X002730Y004506D03*
D580*
X002729Y004498D03*
D581*
X002730Y004505D03*
X002035Y004498D03*
D582*
X002729Y004499D03*
X002729Y004499D03*
D583*
X002034Y004499D03*
X002034Y004500D03*
D584*
X002034Y004500D03*
X002034Y004501D03*
D585*
X002730Y004501D03*
X002730Y004503D03*
D586*
X002731Y004509D03*
X002731Y004509D03*
X002034Y004504D03*
X002034Y004503D03*
X002034Y004501D03*
D587*
X002730Y004502D03*
D588*
X002731Y004508D03*
X002731Y004509D03*
X002034Y004503D03*
X002034Y004502D03*
D589*
X002034Y004504D03*
X002034Y004505D03*
D590*
X002034Y004505D03*
X002034Y004504D03*
D591*
X002034Y004506D03*
X002034Y004506D03*
X002034Y004508D03*
X002731Y004511D03*
X002731Y004513D03*
D592*
X002730Y004508D03*
X002730Y004506D03*
D593*
X002730Y004507D03*
D594*
X002731Y004512D03*
X002731Y004513D03*
X002034Y004507D03*
D595*
X002033Y004508D03*
X002033Y004509D03*
X002731Y004514D03*
D596*
X002731Y004514D03*
X002731Y004514D03*
X002033Y004509D03*
X002033Y004509D03*
D597*
X002731Y004510D03*
X002731Y004511D03*
D598*
X002033Y004511D03*
X002033Y004511D03*
X002033Y004510D03*
D599*
X002731Y004510D03*
D600*
X002033Y004510D03*
D601*
X002033Y004512D03*
X002033Y004513D03*
X002732Y004517D03*
X002732Y004518D03*
D602*
X002732Y004518D03*
X002732Y004516D03*
X002033Y004514D03*
X002033Y004513D03*
D603*
X002033Y004514D03*
X002033Y004515D03*
X002033Y004516D03*
D604*
X002033Y004515D03*
X002033Y004514D03*
D605*
X002731Y004515D03*
X002731Y004516D03*
D606*
X002731Y004515D03*
D607*
X002732Y004520D03*
X002732Y004521D03*
X002732Y004521D03*
X002032Y004518D03*
X002032Y004516D03*
D608*
X002032Y004517D03*
X002032Y004518D03*
X002732Y004520D03*
D609*
X002732Y004519D03*
X002732Y004519D03*
D610*
X002733Y004523D03*
X002032Y004520D03*
X002032Y004519D03*
X002032Y004519D03*
D611*
X002732Y004519D03*
D612*
X002733Y004522D03*
X002733Y004523D03*
X002032Y004519D03*
D613*
X002032Y004520D03*
X002032Y004522D03*
D614*
X002032Y004521D03*
X002032Y004521D03*
D615*
X002032Y004523D03*
X002032Y004524D03*
X002032Y004524D03*
X002733Y004525D03*
X002733Y004526D03*
X002733Y004526D03*
D616*
X002733Y004525D03*
X002032Y004523D03*
D617*
X002733Y004524D03*
X002733Y004524D03*
D618*
X002733Y004524D03*
D619*
X002031Y004524D03*
X002031Y004525D03*
D620*
X002031Y004525D03*
X002031Y004526D03*
D621*
X002031Y004526D03*
X002031Y004528D03*
X002031Y004529D03*
X002734Y004530D03*
X002734Y004529D03*
X002734Y004529D03*
D622*
X002733Y004528D03*
X002733Y004527D03*
D623*
X002734Y004529D03*
X002031Y004528D03*
X002031Y004527D03*
D624*
X002733Y004528D03*
D625*
X002734Y004531D03*
X002734Y004531D03*
X002031Y004530D03*
X002031Y004529D03*
D626*
X002031Y004529D03*
X002031Y004530D03*
X002734Y004530D03*
D627*
X002031Y004531D03*
X002031Y004531D03*
X002031Y004533D03*
D628*
X002734Y004533D03*
X002734Y004532D03*
D629*
X002031Y004532D03*
D630*
X002734Y004533D03*
D631*
X002734Y004534D03*
X002030Y004534D03*
X002030Y004533D03*
D632*
X002030Y004534D03*
X002030Y004534D03*
X002734Y004535D03*
X002734Y004534D03*
X002734Y004534D03*
D633*
X002030Y004535D03*
X002030Y004536D03*
X002030Y004536D03*
D634*
X002735Y004535D03*
D635*
X002030Y004535D03*
D636*
X002735Y004536D03*
X002735Y004536D03*
D637*
X002735Y004537D03*
X002735Y004538D03*
X002030Y004538D03*
X002030Y004537D03*
D638*
X002030Y004538D03*
X002030Y004539D03*
X002735Y004539D03*
X002735Y004538D03*
D639*
X002735Y004539D03*
X002735Y004540D03*
X002030Y004541D03*
X002030Y004540D03*
X002030Y004539D03*
D640*
X002030Y004539D03*
X002030Y004540D03*
X002735Y004539D03*
D641*
X002735Y004540D03*
D642*
X002735Y004541D03*
X002735Y004541D03*
D643*
X002029Y004541D03*
X002029Y004543D03*
D644*
X002029Y004544D03*
X002736Y004543D03*
X002736Y004542D03*
D645*
X002029Y004543D03*
X002029Y004542D03*
D646*
X002029Y004544D03*
X002029Y004544D03*
X002029Y004545D03*
X002736Y004544D03*
X002736Y004543D03*
D647*
X002736Y004544D03*
X002736Y004545D03*
D648*
X002736Y004544D03*
D649*
X002736Y004545D03*
X002736Y004547D03*
X002029Y004548D03*
D650*
X002029Y004547D03*
X002029Y004545D03*
D651*
X002029Y004548D03*
X002029Y004549D03*
X002029Y004549D03*
X002736Y004546D03*
X002736Y004546D03*
D652*
X002029Y004546D03*
X002029Y004546D03*
D653*
X002028Y004550D03*
X002028Y004551D03*
X002736Y004549D03*
X002736Y004548D03*
D654*
X002736Y004548D03*
X002028Y004549D03*
X002028Y004550D03*
D655*
X002736Y004550D03*
X002736Y004549D03*
D656*
X002736Y004549D03*
D657*
X002737Y004550D03*
X002737Y004552D03*
X002028Y004554D03*
X002028Y004555D03*
D658*
X002028Y004555D03*
X002028Y004554D03*
X002737Y004551D03*
X002737Y004551D03*
D659*
X002028Y004551D03*
X002028Y004553D03*
X002028Y004554D03*
D660*
X002028Y004553D03*
X002028Y004552D03*
D661*
X002737Y004553D03*
X002737Y004554D03*
D662*
X002737Y004553D03*
D663*
X002737Y004554D03*
X002737Y004555D03*
X002027Y004559D03*
X002027Y004559D03*
D664*
X002027Y004559D03*
X002027Y004558D03*
X002737Y004555D03*
X002737Y004554D03*
D665*
X002738Y004556D03*
X002738Y004556D03*
X002027Y004560D03*
X002027Y004561D03*
X002027Y004561D03*
D666*
X002028Y004558D03*
X002028Y004556D03*
X002028Y004556D03*
D667*
X002027Y004560D03*
X002738Y004557D03*
D668*
X002028Y004557D03*
D669*
X002738Y004558D03*
X002738Y004559D03*
D670*
X002738Y004558D03*
D671*
X002738Y004559D03*
X002738Y004560D03*
X002027Y004564D03*
X002027Y004565D03*
X002027Y004566D03*
D672*
X002027Y004565D03*
X002027Y004564D03*
X002738Y004560D03*
X002738Y004559D03*
D673*
X002738Y004561D03*
X002738Y004561D03*
D674*
X002738Y004562D03*
D675*
X002027Y004563D03*
X002027Y004562D03*
D676*
X002026Y004569D03*
X002026Y004569D03*
X002026Y004570D03*
X002739Y004564D03*
X002739Y004564D03*
X002739Y004563D03*
D677*
X002027Y004564D03*
X002027Y004563D03*
D678*
X002026Y004569D03*
X002739Y004563D03*
D679*
X002739Y004564D03*
X002739Y004565D03*
X002026Y004570D03*
X002026Y004572D03*
D680*
X002026Y004571D03*
X002026Y004571D03*
X002739Y004565D03*
D681*
X002739Y004566D03*
X002739Y004566D03*
D682*
X002026Y004566D03*
X002026Y004568D03*
D683*
X002739Y004567D03*
D684*
X002026Y004568D03*
X002026Y004567D03*
D685*
X002025Y004575D03*
X002025Y004576D03*
X002739Y004569D03*
X002739Y004569D03*
X002739Y004568D03*
D686*
X002739Y004568D03*
X002025Y004574D03*
X002025Y004575D03*
D687*
X002740Y004570D03*
X002740Y004569D03*
D688*
X002740Y004570D03*
D689*
X002740Y004571D03*
X002740Y004571D03*
X002740Y004573D03*
X002025Y004579D03*
X002025Y004580D03*
D690*
X002025Y004580D03*
X002025Y004579D03*
X002740Y004572D03*
D691*
X002026Y004573D03*
X002026Y004574D03*
X002026Y004574D03*
D692*
X002025Y004582D03*
X002740Y004573D03*
D693*
X002026Y004573D03*
D694*
X002025Y004581D03*
X002025Y004581D03*
X002025Y004583D03*
X002740Y004574D03*
X002740Y004574D03*
D695*
X002740Y004574D03*
X002740Y004575D03*
D696*
X002740Y004575D03*
D697*
X002741Y004576D03*
X002741Y004576D03*
X002741Y004578D03*
X002024Y004585D03*
X002024Y004586D03*
X002024Y004586D03*
D698*
X002025Y004579D03*
X002025Y004578D03*
X002025Y004576D03*
D699*
X002024Y004585D03*
X002741Y004577D03*
D700*
X002025Y004578D03*
X002025Y004577D03*
D701*
X002741Y004578D03*
D702*
X002741Y004579D03*
X002741Y004579D03*
D703*
X002741Y004579D03*
X002741Y004580D03*
X002024Y004589D03*
D704*
X002024Y004589D03*
X002741Y004581D03*
X002741Y004580D03*
D705*
X002741Y004581D03*
X002741Y004583D03*
D706*
X002741Y004582D03*
D707*
X002741Y004583D03*
X002741Y004584D03*
D708*
X002024Y004584D03*
X002024Y004583D03*
D709*
X002741Y004584D03*
X002741Y004584D03*
D710*
X002024Y004584D03*
X002024Y004584D03*
D711*
X002742Y004585D03*
X002742Y004586D03*
D712*
X002742Y004585D03*
D713*
X002742Y004586D03*
X002742Y004588D03*
D714*
X002742Y004587D03*
D715*
X002024Y004588D03*
X002024Y004587D03*
D716*
X002024Y004588D03*
X002024Y004589D03*
D717*
X002742Y004589D03*
X002742Y004588D03*
D718*
X002742Y004589D03*
X002742Y004589D03*
D719*
X002686Y004590D03*
X002686Y004591D03*
X002686Y004591D03*
X002686Y004593D03*
X002686Y004594D03*
X002686Y004594D03*
X002686Y004595D03*
X002686Y004596D03*
X002686Y004596D03*
X002686Y004598D03*
X002686Y004599D03*
X002686Y004599D03*
X002686Y004600D03*
X002686Y004601D03*
X002686Y004601D03*
X002686Y004603D03*
X002686Y004604D03*
X002686Y004604D03*
X002686Y004605D03*
X002686Y004606D03*
X002686Y004606D03*
X002686Y004608D03*
X002686Y004609D03*
X002686Y004609D03*
X002686Y004610D03*
X002686Y004611D03*
X002686Y004611D03*
X002686Y004613D03*
X002686Y004614D03*
X002686Y004614D03*
X002686Y004615D03*
D720*
X002078Y004615D03*
X002078Y004614D03*
X002078Y004614D03*
X002078Y004613D03*
X002078Y004611D03*
X002078Y004611D03*
X002078Y004610D03*
X002078Y004609D03*
X002078Y004609D03*
X002078Y004608D03*
X002078Y004606D03*
X002078Y004606D03*
X002078Y004605D03*
X002078Y004604D03*
X002078Y004604D03*
X002078Y004603D03*
X002078Y004601D03*
X002078Y004601D03*
X002078Y004600D03*
X002078Y004599D03*
X002078Y004599D03*
X002078Y004598D03*
X002078Y004596D03*
X002078Y004596D03*
X002078Y004595D03*
X002078Y004594D03*
X002078Y004594D03*
X002078Y004593D03*
X002078Y004591D03*
X002078Y004591D03*
X002078Y004590D03*
D721*
X002686Y004590D03*
X002686Y004592D03*
X002686Y004593D03*
X002686Y004594D03*
X002686Y004595D03*
X002686Y004597D03*
X002686Y004598D03*
X002686Y004599D03*
X002686Y004600D03*
X002686Y004602D03*
X002686Y004603D03*
X002686Y004604D03*
X002686Y004605D03*
X002686Y004607D03*
X002686Y004608D03*
X002686Y004609D03*
X002686Y004610D03*
X002686Y004612D03*
X002686Y004613D03*
X002686Y004614D03*
X002686Y004615D03*
D722*
X002078Y004615D03*
X002078Y004614D03*
X002078Y004613D03*
X002078Y004612D03*
X002078Y004610D03*
X002078Y004609D03*
X002078Y004608D03*
X002078Y004607D03*
X002078Y004605D03*
X002078Y004604D03*
X002078Y004603D03*
X002078Y004602D03*
X002078Y004600D03*
X002078Y004599D03*
X002078Y004598D03*
X002078Y004597D03*
X002078Y004595D03*
X002078Y004594D03*
X002078Y004593D03*
X002078Y004592D03*
X002078Y004590D03*
D723*
X002382Y004616D03*
X002382Y004616D03*
X002382Y004618D03*
X002382Y004619D03*
X002382Y004619D03*
X002382Y004620D03*
X002382Y004621D03*
X002382Y004621D03*
X002382Y004623D03*
X002382Y004624D03*
X002382Y004624D03*
X002382Y004625D03*
X002382Y004626D03*
X002382Y004626D03*
X002382Y004628D03*
X002382Y004629D03*
X002382Y004629D03*
X002382Y004630D03*
X002382Y004631D03*
X002382Y004631D03*
X002382Y004633D03*
X002382Y004634D03*
X002382Y004634D03*
X002382Y004635D03*
X002382Y004636D03*
X002382Y004765D03*
X002382Y004766D03*
X002382Y004766D03*
X002382Y004768D03*
X002382Y004769D03*
X002382Y004769D03*
X002382Y004770D03*
X002382Y004771D03*
X002382Y004771D03*
X002382Y004773D03*
X002382Y004774D03*
X002382Y004774D03*
X002382Y004775D03*
X002382Y004776D03*
X002382Y004776D03*
X002382Y004778D03*
X002382Y004779D03*
X002382Y004779D03*
X002382Y004780D03*
X002382Y004781D03*
X002382Y004781D03*
X002382Y004783D03*
X002382Y004784D03*
X002382Y004784D03*
X002382Y004785D03*
X002382Y004786D03*
X002382Y004786D03*
X002382Y004788D03*
X002382Y004789D03*
X002382Y004789D03*
X002382Y004790D03*
X002382Y004791D03*
X002382Y004791D03*
X002382Y004793D03*
X002382Y004794D03*
X002382Y004794D03*
X002382Y004795D03*
X002382Y004796D03*
X002382Y004796D03*
X002382Y004798D03*
X002382Y004799D03*
X002382Y004799D03*
X002382Y004800D03*
X002382Y004801D03*
D724*
X002382Y004800D03*
X002382Y004799D03*
X002382Y004798D03*
X002382Y004797D03*
X002382Y004795D03*
X002382Y004794D03*
X002382Y004793D03*
X002382Y004792D03*
X002382Y004790D03*
X002382Y004789D03*
X002382Y004788D03*
X002382Y004787D03*
X002382Y004785D03*
X002382Y004784D03*
X002382Y004783D03*
X002382Y004782D03*
X002382Y004780D03*
X002382Y004779D03*
X002382Y004778D03*
X002382Y004777D03*
X002382Y004775D03*
X002382Y004774D03*
X002382Y004773D03*
X002382Y004772D03*
X002382Y004770D03*
X002382Y004769D03*
X002382Y004768D03*
X002382Y004767D03*
X002382Y004765D03*
X002382Y004635D03*
X002382Y004634D03*
X002382Y004633D03*
X002382Y004632D03*
X002382Y004630D03*
X002382Y004629D03*
X002382Y004628D03*
X002382Y004627D03*
X002382Y004625D03*
X002382Y004624D03*
X002382Y004623D03*
X002382Y004622D03*
X002382Y004620D03*
X002382Y004619D03*
X002382Y004618D03*
X002382Y004617D03*
D725*
X002656Y004636D03*
X002656Y004638D03*
X002656Y004639D03*
X002656Y004639D03*
X002656Y004640D03*
X002656Y004641D03*
X002656Y004641D03*
X002656Y004643D03*
X002656Y004644D03*
X002656Y004644D03*
X002656Y004645D03*
X002656Y004646D03*
X002656Y004646D03*
X002656Y004648D03*
X002656Y004649D03*
X002656Y004649D03*
X002656Y004650D03*
X002656Y004651D03*
X002656Y004651D03*
X002656Y004653D03*
X002656Y004654D03*
X002656Y004654D03*
X002656Y004655D03*
X002656Y004656D03*
X002656Y004656D03*
X002656Y004658D03*
X002656Y004659D03*
X002656Y004659D03*
X002656Y004660D03*
X002656Y004661D03*
X002656Y004661D03*
X002656Y004663D03*
X002656Y004664D03*
X002656Y004664D03*
X002656Y004665D03*
X002656Y004666D03*
X002656Y004666D03*
X002656Y004668D03*
X002656Y004669D03*
X002656Y004669D03*
X002656Y004670D03*
X002656Y004671D03*
X002656Y004671D03*
X002656Y004673D03*
X002656Y004674D03*
X002656Y004674D03*
X002656Y004675D03*
X002656Y004676D03*
X002656Y004676D03*
X002656Y004678D03*
X002656Y004679D03*
X002656Y004679D03*
X002656Y004680D03*
X002656Y004681D03*
X002656Y004681D03*
X002656Y004683D03*
X002656Y004684D03*
X002656Y004684D03*
X002656Y004685D03*
X002656Y004686D03*
X002656Y004686D03*
X002656Y004688D03*
X002656Y004689D03*
X002656Y004689D03*
X002656Y004690D03*
X002656Y004691D03*
X002656Y004691D03*
X002656Y004693D03*
X002656Y004694D03*
X002656Y004694D03*
X002656Y004695D03*
X002656Y004696D03*
X002656Y004696D03*
X002656Y004698D03*
X002656Y004699D03*
X002656Y004699D03*
X002656Y004700D03*
X002656Y004701D03*
X002656Y004701D03*
X002656Y004703D03*
X002656Y004704D03*
X002656Y004704D03*
X002656Y004705D03*
X002656Y004706D03*
X002656Y004706D03*
X002656Y004708D03*
X002656Y004709D03*
X002656Y004709D03*
X002656Y004710D03*
X002656Y004711D03*
X002656Y004711D03*
X002656Y004713D03*
X002656Y004714D03*
X002656Y004714D03*
X002656Y004715D03*
X002656Y004716D03*
X002656Y004716D03*
X002656Y004718D03*
X002656Y004719D03*
X002656Y004719D03*
X002656Y004720D03*
X002656Y004721D03*
X002656Y004721D03*
X002656Y004723D03*
X002656Y004724D03*
X002656Y004724D03*
X002656Y004725D03*
X002656Y004726D03*
X002656Y004726D03*
X002656Y004728D03*
X002656Y004729D03*
X002656Y004729D03*
X002656Y004730D03*
X002656Y004731D03*
X002656Y004731D03*
X002656Y004733D03*
X002656Y004734D03*
X002656Y004734D03*
X002656Y004735D03*
X002656Y004736D03*
X002656Y004736D03*
X002656Y004738D03*
X002656Y004739D03*
X002656Y004739D03*
X002656Y004740D03*
X002656Y004741D03*
X002656Y004741D03*
X002656Y004743D03*
X002656Y004744D03*
X002656Y004744D03*
X002656Y004745D03*
X002656Y004746D03*
X002656Y004746D03*
X002656Y004748D03*
X002656Y004749D03*
X002656Y004749D03*
X002656Y004750D03*
X002656Y004751D03*
X002656Y004751D03*
X002656Y004753D03*
X002656Y004754D03*
X002656Y004754D03*
X002656Y004755D03*
X002656Y004756D03*
X002656Y004756D03*
X002656Y004758D03*
X002656Y004759D03*
X002656Y004759D03*
X002656Y004760D03*
X002656Y004761D03*
X002656Y004761D03*
X002656Y004763D03*
X002656Y004764D03*
X002656Y004764D03*
D726*
X002101Y004764D03*
X002101Y004764D03*
X002101Y004763D03*
X002101Y004761D03*
X002101Y004761D03*
X002101Y004760D03*
X002101Y004759D03*
X002101Y004759D03*
X002101Y004758D03*
X002101Y004756D03*
X002101Y004756D03*
X002101Y004755D03*
X002101Y004754D03*
X002101Y004754D03*
X002101Y004753D03*
X002101Y004751D03*
X002101Y004751D03*
X002101Y004750D03*
X002101Y004749D03*
X002101Y004749D03*
X002101Y004748D03*
X002101Y004746D03*
X002101Y004746D03*
X002101Y004745D03*
X002101Y004744D03*
X002101Y004744D03*
X002101Y004743D03*
X002101Y004741D03*
X002101Y004741D03*
X002101Y004740D03*
X002101Y004739D03*
X002101Y004739D03*
X002101Y004738D03*
X002101Y004736D03*
X002101Y004736D03*
X002101Y004735D03*
X002101Y004734D03*
X002101Y004734D03*
X002101Y004733D03*
X002101Y004731D03*
X002101Y004731D03*
X002101Y004730D03*
X002101Y004729D03*
X002101Y004729D03*
X002101Y004728D03*
X002101Y004726D03*
X002101Y004726D03*
X002101Y004725D03*
X002101Y004724D03*
X002101Y004724D03*
X002101Y004723D03*
X002101Y004721D03*
X002101Y004721D03*
X002101Y004720D03*
X002101Y004719D03*
X002101Y004719D03*
X002101Y004718D03*
X002101Y004716D03*
X002101Y004716D03*
X002101Y004715D03*
X002101Y004714D03*
X002101Y004714D03*
X002101Y004713D03*
X002101Y004711D03*
X002101Y004711D03*
X002101Y004710D03*
X002101Y004709D03*
X002101Y004709D03*
X002101Y004708D03*
X002101Y004706D03*
X002101Y004706D03*
X002101Y004705D03*
X002101Y004704D03*
X002101Y004704D03*
X002101Y004703D03*
X002101Y004701D03*
X002101Y004701D03*
X002101Y004700D03*
X002101Y004699D03*
X002101Y004699D03*
X002101Y004698D03*
X002101Y004696D03*
X002101Y004696D03*
X002101Y004695D03*
X002101Y004694D03*
X002101Y004694D03*
X002101Y004693D03*
X002101Y004691D03*
X002101Y004691D03*
X002101Y004690D03*
X002101Y004689D03*
X002101Y004689D03*
X002101Y004688D03*
X002101Y004686D03*
X002101Y004686D03*
X002101Y004685D03*
X002101Y004684D03*
X002101Y004684D03*
X002101Y004683D03*
X002101Y004681D03*
X002101Y004681D03*
X002101Y004680D03*
X002101Y004679D03*
X002101Y004679D03*
X002101Y004678D03*
X002101Y004676D03*
X002101Y004676D03*
X002101Y004675D03*
X002101Y004674D03*
X002101Y004674D03*
X002101Y004673D03*
X002101Y004671D03*
X002101Y004671D03*
X002101Y004670D03*
X002101Y004669D03*
X002101Y004669D03*
X002101Y004668D03*
X002101Y004666D03*
X002101Y004666D03*
X002101Y004665D03*
X002101Y004664D03*
X002101Y004664D03*
X002101Y004663D03*
X002101Y004661D03*
X002101Y004661D03*
X002101Y004660D03*
X002101Y004659D03*
X002101Y004659D03*
X002101Y004658D03*
X002101Y004656D03*
X002101Y004656D03*
X002101Y004655D03*
X002101Y004654D03*
X002101Y004654D03*
X002101Y004653D03*
X002101Y004651D03*
X002101Y004651D03*
X002101Y004650D03*
X002101Y004649D03*
X002101Y004649D03*
X002101Y004648D03*
X002101Y004646D03*
X002101Y004646D03*
X002101Y004645D03*
X002101Y004644D03*
X002101Y004644D03*
X002101Y004643D03*
X002101Y004641D03*
X002101Y004641D03*
X002101Y004640D03*
X002101Y004639D03*
X002101Y004639D03*
X002101Y004638D03*
X002101Y004636D03*
D727*
X002656Y004637D03*
X002656Y004638D03*
X002656Y004639D03*
X002656Y004640D03*
X002656Y004642D03*
X002656Y004643D03*
X002656Y004644D03*
X002656Y004645D03*
X002656Y004647D03*
X002656Y004648D03*
X002656Y004649D03*
X002656Y004650D03*
X002656Y004652D03*
X002656Y004653D03*
X002656Y004654D03*
X002656Y004655D03*
X002656Y004657D03*
X002656Y004658D03*
X002656Y004659D03*
X002656Y004660D03*
X002656Y004662D03*
X002656Y004663D03*
X002656Y004664D03*
X002656Y004665D03*
X002656Y004667D03*
X002656Y004668D03*
X002656Y004669D03*
X002656Y004670D03*
X002656Y004672D03*
X002656Y004673D03*
X002656Y004674D03*
X002656Y004675D03*
X002656Y004677D03*
X002656Y004678D03*
X002656Y004679D03*
X002656Y004680D03*
X002656Y004682D03*
X002656Y004683D03*
X002656Y004684D03*
X002656Y004685D03*
X002656Y004687D03*
X002656Y004688D03*
X002656Y004689D03*
X002656Y004690D03*
X002656Y004692D03*
X002656Y004693D03*
X002656Y004694D03*
X002656Y004695D03*
X002656Y004697D03*
X002656Y004698D03*
X002656Y004699D03*
X002656Y004700D03*
X002656Y004702D03*
X002656Y004703D03*
X002656Y004704D03*
X002656Y004705D03*
X002656Y004707D03*
X002656Y004708D03*
X002656Y004709D03*
X002656Y004710D03*
X002656Y004712D03*
X002656Y004713D03*
X002656Y004714D03*
X002656Y004715D03*
X002656Y004717D03*
X002656Y004718D03*
X002656Y004719D03*
X002656Y004720D03*
X002656Y004722D03*
X002656Y004723D03*
X002656Y004724D03*
X002656Y004725D03*
X002656Y004727D03*
X002656Y004728D03*
X002656Y004729D03*
X002656Y004730D03*
X002656Y004732D03*
X002656Y004733D03*
X002656Y004734D03*
X002656Y004735D03*
X002656Y004737D03*
X002656Y004738D03*
X002656Y004739D03*
X002656Y004740D03*
X002656Y004742D03*
X002656Y004743D03*
X002656Y004744D03*
X002656Y004745D03*
X002656Y004747D03*
X002656Y004748D03*
X002656Y004749D03*
X002656Y004750D03*
X002656Y004752D03*
X002656Y004753D03*
X002656Y004754D03*
X002656Y004755D03*
X002656Y004757D03*
X002656Y004758D03*
X002656Y004759D03*
X002656Y004760D03*
X002656Y004762D03*
X002656Y004763D03*
X002656Y004764D03*
D728*
X002101Y004764D03*
X002101Y004763D03*
X002101Y004762D03*
X002101Y004760D03*
X002101Y004759D03*
X002101Y004758D03*
X002101Y004757D03*
X002101Y004755D03*
X002101Y004754D03*
X002101Y004753D03*
X002101Y004752D03*
X002101Y004750D03*
X002101Y004749D03*
X002101Y004748D03*
X002101Y004747D03*
X002101Y004745D03*
X002101Y004744D03*
X002101Y004743D03*
X002101Y004742D03*
X002101Y004740D03*
X002101Y004739D03*
X002101Y004738D03*
X002101Y004737D03*
X002101Y004735D03*
X002101Y004734D03*
X002101Y004733D03*
X002101Y004732D03*
X002101Y004730D03*
X002101Y004729D03*
X002101Y004728D03*
X002101Y004727D03*
X002101Y004725D03*
X002101Y004724D03*
X002101Y004723D03*
X002101Y004722D03*
X002101Y004720D03*
X002101Y004719D03*
X002101Y004718D03*
X002101Y004717D03*
X002101Y004715D03*
X002101Y004714D03*
X002101Y004713D03*
X002101Y004712D03*
X002101Y004710D03*
X002101Y004709D03*
X002101Y004708D03*
X002101Y004707D03*
X002101Y004705D03*
X002101Y004704D03*
X002101Y004703D03*
X002101Y004702D03*
X002101Y004700D03*
X002101Y004699D03*
X002101Y004698D03*
X002101Y004697D03*
X002101Y004695D03*
X002101Y004694D03*
X002101Y004693D03*
X002101Y004692D03*
X002101Y004690D03*
X002101Y004689D03*
X002101Y004688D03*
X002101Y004687D03*
X002101Y004685D03*
X002101Y004684D03*
X002101Y004683D03*
X002101Y004682D03*
X002101Y004680D03*
X002101Y004679D03*
X002101Y004678D03*
X002101Y004677D03*
X002101Y004675D03*
X002101Y004674D03*
X002101Y004673D03*
X002101Y004672D03*
X002101Y004670D03*
X002101Y004669D03*
X002101Y004668D03*
X002101Y004667D03*
X002101Y004665D03*
X002101Y004664D03*
X002101Y004663D03*
X002101Y004662D03*
X002101Y004660D03*
X002101Y004659D03*
X002101Y004658D03*
X002101Y004657D03*
X002101Y004655D03*
X002101Y004654D03*
X002101Y004653D03*
X002101Y004652D03*
X002101Y004650D03*
X002101Y004649D03*
X002101Y004648D03*
X002101Y004647D03*
X002101Y004645D03*
X002101Y004644D03*
X002101Y004643D03*
X002101Y004642D03*
X002101Y004640D03*
X002101Y004639D03*
X002101Y004638D03*
X002101Y004637D03*
D729*
X002383Y004801D03*
D730*
X002383Y004802D03*
D731*
X002382Y004803D03*
X002382Y004804D03*
X002382Y004804D03*
X002382Y004805D03*
D732*
X002382Y004805D03*
X002382Y004804D03*
X002382Y004803D03*
D733*
X002382Y004806D03*
D734*
X002382Y004806D03*
X002382Y004808D03*
X002382Y004809D03*
D735*
X002382Y004808D03*
X002382Y004807D03*
D736*
X002382Y004809D03*
D737*
X002382Y004809D03*
D738*
X002382Y004810D03*
X002382Y004811D03*
X002382Y004811D03*
D739*
X002382Y004810D03*
D740*
X002382Y004812D03*
D741*
X002382Y004813D03*
D742*
X002382Y004813D03*
D743*
X002382Y004814D03*
X002382Y004814D03*
D744*
X002382Y004814D03*
D745*
X002382Y004815D03*
D746*
X002382Y004815D03*
D747*
X002382Y004816D03*
X002382Y004816D03*
D748*
X002382Y004817D03*
D749*
X002382Y004818D03*
D750*
X002382Y004818D03*
D751*
X002382Y004819D03*
X002382Y004819D03*
D752*
X002382Y004819D03*
D753*
X002382Y004820D03*
X002382Y004821D03*
X002382Y004821D03*
D754*
X002382Y004820D03*
D755*
X002382Y004822D03*
X002382Y004823D03*
D756*
X002382Y004823D03*
X002382Y004824D03*
D757*
X002382Y004824D03*
X002382Y004825D03*
D758*
X002382Y004825D03*
X002382Y004824D03*
D759*
X002382Y004826D03*
X002382Y004826D03*
X002382Y004828D03*
D760*
X002382Y004827D03*
D761*
X002382Y004828D03*
X002382Y004829D03*
D762*
X002382Y004829D03*
X002382Y004829D03*
D763*
X002382Y004830D03*
X002382Y004831D03*
D764*
X002382Y004830D03*
D765*
X002383Y004831D03*
D766*
X002382Y004832D03*
D767*
X002382Y004833D03*
D768*
X002383Y004833D03*
D769*
X002382Y004834D03*
X002382Y004834D03*
D770*
X002382Y004834D03*
D771*
X002383Y004835D03*
D772*
X002382Y004835D03*
D773*
X002382Y004836D03*
D774*
X002383Y004836D03*
D775*
X002382Y004837D03*
D776*
X002382Y004838D03*
D777*
X002383Y004838D03*
D778*
X002382Y004839D03*
X002382Y004839D03*
D779*
X002383Y004839D03*
D780*
X002382Y004840D03*
D781*
X002383Y004840D03*
D782*
X002382Y004841D03*
X002382Y004841D03*
D783*
X002383Y004842D03*
D784*
X002382Y004843D03*
D785*
X002382Y004843D03*
D786*
X002383Y004844D03*
D787*
X002382Y004844D03*
D788*
X002383Y004844D03*
D789*
X002382Y004845D03*
D790*
X002382Y004845D03*
D791*
X002383Y004846D03*
D792*
X002382Y004846D03*
D793*
X002383Y004847D03*
D794*
X002383Y004848D03*
D795*
X002383Y004848D03*
D796*
X002382Y004849D03*
D797*
X002382Y004849D03*
D798*
X002382Y004849D03*
D799*
X002382Y004850D03*
D800*
X002382Y004850D03*
D801*
X002382Y004851D03*
D802*
X002382Y004851D03*
D803*
X002382Y004852D03*
D804*
X002382Y004853D03*
D805*
X002382Y004853D03*
D806*
X002382Y004854D03*
D807*
X002382Y004854D03*
D808*
X002382Y004854D03*
D809*
X002382Y004855D03*
D810*
X002382Y004855D03*
D811*
X002382Y004856D03*
D812*
X002382Y004856D03*
D813*
X002382Y004857D03*
D814*
X002382Y004858D03*
D815*
X002382Y004858D03*
D816*
X002382Y004859D03*
D817*
X002382Y004859D03*
D818*
X002382Y004859D03*
D819*
X002382Y004860D03*
D820*
X002382Y004860D03*
D821*
X002382Y004861D03*
D822*
X002382Y004861D03*
D823*
X002382Y004862D03*
D824*
X002382Y004863D03*
D825*
X002382Y004863D03*
D826*
X002382Y004864D03*
D827*
X002382Y004864D03*
D828*
X002383Y004864D03*
D829*
X002383Y004865D03*
D830*
X002383Y004865D03*
D831*
X002383Y004866D03*
D832*
X002383Y004866D03*
D833*
X002383Y004867D03*
D834*
X002383Y004868D03*
D835*
X002383Y004868D03*
D836*
X002383Y004869D03*
D837*
X002383Y004869D03*
D838*
X002383Y004869D03*
D839*
X002383Y004870D03*
D840*
X002383Y004870D03*
D841*
X002383Y004871D03*
D842*
X002383Y004871D03*
D843*
X002383Y004872D03*
D844*
X002383Y004873D03*
D845*
X002382Y004873D03*
D846*
X002382Y004874D03*
D847*
X002382Y004874D03*
D848*
X002382Y004874D03*
D849*
X002382Y004875D03*
D850*
X002382Y004875D03*
D851*
X002382Y004876D03*
D852*
X002382Y004876D03*
D853*
X002382Y004877D03*
D854*
X002382Y004878D03*
D855*
X002382Y004878D03*
D856*
X002382Y004879D03*
D857*
X002382Y004879D03*
D858*
X002382Y004879D03*
D859*
X002382Y004880D03*
D860*
X002382Y004880D03*
D861*
X002382Y004881D03*
D862*
X002382Y004881D03*
D863*
X002382Y004882D03*
D864*
X002382Y004883D03*
D865*
X002382Y004883D03*
D866*
X002382Y004884D03*
D867*
X002382Y004884D03*
D868*
X002382Y004884D03*
D869*
X002382Y004885D03*
D870*
X002382Y004885D03*
D871*
X002382Y004886D03*
D872*
X002382Y004886D03*
D873*
X002382Y004887D03*
D874*
X002382Y004888D03*
D875*
X002382Y004888D03*
D876*
X002382Y004889D03*
D877*
X002383Y004889D03*
D878*
X002383Y004889D03*
D879*
X002383Y004890D03*
D880*
X002383Y004890D03*
D881*
X002383Y004891D03*
D882*
X002383Y004891D03*
D883*
X002383Y004892D03*
D884*
X002383Y004893D03*
D885*
X002383Y004893D03*
D886*
X002383Y004894D03*
D887*
X002383Y004894D03*
D888*
X002383Y004894D03*
D889*
X002383Y004895D03*
D890*
X002383Y004895D03*
D891*
X002383Y004896D03*
D892*
X002383Y004896D03*
D893*
X002383Y004897D03*
D894*
X002382Y004898D03*
D895*
X002382Y004898D03*
D896*
X002382Y004899D03*
D897*
X002382Y004899D03*
D898*
X002382Y004899D03*
D899*
X002382Y004900D03*
D900*
X002382Y004900D03*
D901*
X002382Y004901D03*
D902*
X002382Y004901D03*
D903*
X002382Y004902D03*
D904*
X002382Y004903D03*
D905*
X002382Y004903D03*
D906*
X002382Y004904D03*
D907*
X002382Y004904D03*
D908*
X002382Y004904D03*
D909*
X002382Y004905D03*
D910*
X002382Y004905D03*
D911*
X002382Y004906D03*
D912*
X002382Y004906D03*
D913*
X002382Y004907D03*
D914*
X002382Y004908D03*
D915*
X002382Y004908D03*
D916*
X002382Y004909D03*
D917*
X002382Y004909D03*
D918*
X002382Y004909D03*
D919*
X002382Y004910D03*
D920*
X002382Y004910D03*
D921*
X002382Y004911D03*
D922*
X002382Y004911D03*
D923*
X002382Y004912D03*
D924*
X002382Y004913D03*
D925*
X002382Y004913D03*
D926*
X002382Y004914D03*
D927*
X002383Y004914D03*
D928*
X002383Y004914D03*
D929*
X002383Y004915D03*
D930*
X002383Y004915D03*
D931*
X002383Y004916D03*
D932*
X002383Y004916D03*
D933*
X002383Y004917D03*
D934*
X002383Y004918D03*
D935*
X002383Y004918D03*
D936*
X002383Y004919D03*
D937*
X002383Y004919D03*
D938*
X002383Y004919D03*
D939*
X002383Y004920D03*
D940*
X002383Y004920D03*
D941*
X002383Y004921D03*
D942*
X002382Y004921D03*
D943*
X002382Y004922D03*
D944*
X002382Y004923D03*
D945*
X002382Y004923D03*
D946*
X002382Y004924D03*
D947*
X002382Y004924D03*
D948*
X002382Y004924D03*
D949*
X002382Y004925D03*
D950*
X002382Y004925D03*
D951*
X002382Y004926D03*
D952*
X002382Y004926D03*
D953*
X002382Y004927D03*
D954*
X002382Y004928D03*
D955*
X002382Y004928D03*
D956*
X002382Y004929D03*
D957*
X002382Y004929D03*
D958*
X002382Y004929D03*
D959*
X002382Y004930D03*
D960*
X002382Y004930D03*
D961*
X002382Y004931D03*
D962*
X002382Y004931D03*
D963*
X002382Y004932D03*
D964*
X002382Y004933D03*
D965*
X002382Y004933D03*
D966*
X002382Y004934D03*
D967*
X002382Y004934D03*
D968*
X002382Y004934D03*
D969*
X002382Y004935D03*
D970*
X002382Y004935D03*
D971*
X002382Y004936D03*
D972*
X002382Y004936D03*
D973*
X002382Y004937D03*
D974*
X002382Y004938D03*
D975*
X002382Y004938D03*
D976*
X002383Y004939D03*
D977*
X002383Y004939D03*
D978*
X002383Y004939D03*
D979*
X002383Y004940D03*
D980*
X002383Y004940D03*
D981*
X002383Y004941D03*
D982*
X002383Y004941D03*
D983*
X002383Y004942D03*
D984*
X002383Y004943D03*
D985*
X002383Y004943D03*
D986*
X002383Y004944D03*
D987*
X002383Y004944D03*
D988*
X002383Y004944D03*
D989*
X002383Y004945D03*
D990*
X002383Y004945D03*
D991*
X002382Y004946D03*
D992*
X002382Y004946D03*
D993*
X002382Y004947D03*
D994*
X002382Y004948D03*
D995*
X002382Y004948D03*
D996*
X002382Y004949D03*
D997*
X002382Y004949D03*
D998*
X002382Y004949D03*
D999*
X002382Y004950D03*
D1000*
X002382Y004950D03*
D1001*
X002382Y004951D03*
D1002*
X002382Y004951D03*
D1003*
X002382Y004952D03*
D1004*
X002382Y004953D03*
D1005*
X002382Y004953D03*
D1006*
X002382Y004954D03*
D1007*
X002382Y004954D03*
D1008*
X002382Y004954D03*
D1009*
X002382Y004955D03*
D1010*
X002382Y004955D03*
D1011*
X002382Y004956D03*
D1012*
X002382Y004956D03*
D1013*
X002382Y004957D03*
D1014*
X002382Y004958D03*
D1015*
X002382Y004958D03*
D1016*
X002382Y004959D03*
D1017*
X002382Y004959D03*
D1018*
X002382Y004959D03*
D1019*
X002382Y004960D03*
D1020*
X002382Y004960D03*
D1021*
X002382Y004961D03*
D1022*
X002382Y004961D03*
D1023*
X002382Y004962D03*
D1024*
X002382Y004963D03*
D1025*
X002383Y004963D03*
D1026*
X002383Y004964D03*
D1027*
X002383Y004964D03*
D1028*
X002383Y004964D03*
D1029*
X002383Y004965D03*
D1030*
X002383Y004965D03*
D1031*
X002383Y004966D03*
D1032*
X002383Y004966D03*
D1033*
X002383Y004967D03*
D1034*
X002383Y004968D03*
D1035*
X002383Y004968D03*
D1036*
X002383Y004969D03*
D1037*
X002383Y004969D03*
D1038*
X002383Y004969D03*
D1039*
X002383Y004970D03*
D1040*
X002382Y004970D03*
D1041*
X002382Y004971D03*
D1042*
X002382Y004971D03*
D1043*
X002382Y004972D03*
D1044*
X002382Y004973D03*
D1045*
X002382Y004973D03*
D1046*
X002382Y004974D03*
D1047*
X002382Y004974D03*
D1048*
X002382Y004974D03*
D1049*
X002382Y004975D03*
D1050*
X002382Y004975D03*
D1051*
X002382Y004976D03*
D1052*
X002382Y004976D03*
D1053*
X002382Y004977D03*
D1054*
X002382Y004978D03*
D1055*
X002382Y004978D03*
D1056*
X002382Y004979D03*
D1057*
X002382Y004979D03*
D1058*
X002382Y004979D03*
D1059*
X002382Y004980D03*
D1060*
X002382Y004980D03*
D1061*
X002382Y004981D03*
D1062*
X002383Y004981D03*
D1063*
X002382Y004982D03*
D1064*
X002382Y004983D03*
D1065*
X002382Y004983D03*
D1066*
X002382Y004984D03*
D1067*
X002382Y004984D03*
D1068*
X002383Y004984D03*
D1069*
X002383Y004985D03*
D1070*
X002383Y004985D03*
D1071*
X002383Y004986D03*
D1072*
X002383Y004986D03*
D1073*
X002383Y004987D03*
D1074*
X002383Y004988D03*
D1075*
X002383Y004988D03*
D1076*
X002383Y004989D03*
D1077*
X002383Y004989D03*
D1078*
X002383Y004989D03*
D1079*
X002383Y004990D03*
D1080*
X002383Y004990D03*
D1081*
X002383Y004991D03*
D1082*
X002383Y004991D03*
D1083*
X002886Y003938D02*
X002885Y003938D01*
X002885Y003938D01*
X002886Y003938D01*
X002886Y003938D01*
X002886Y003937D01*
X002886Y003938D02*
X002886Y003938D01*
X002886Y003938D01*
X002887Y003938D01*
X002887Y003938D01*
X002887Y003938D01*
X002887Y003938D01*
X002887Y003938D01*
X002887Y003938D01*
X002887Y003938D01*
X002887Y003938D01*
X002887Y003938D01*
X002888Y003938D01*
X002888Y003938D01*
X002888Y003938D01*
X002887Y003938D01*
X002888Y003939D02*
X002888Y003938D01*
X002888Y003938D01*
X002888Y003938D01*
X002889Y003938D02*
X002889Y003938D01*
X002889Y003938D01*
X002889Y003938D01*
X002889Y003938D01*
X002889Y003938D01*
X002889Y003938D01*
X002889Y003938D01*
X002889Y003938D01*
X002890Y003938D02*
X002890Y003938D01*
X002890Y003938D01*
X002890Y003938D01*
X002890Y003937D01*
X002890Y003937D01*
X002890Y003937D01*
X002890Y003938D02*
X002890Y003938D01*
X002890Y003938D01*
X002891Y003938D02*
X002891Y003938D01*
X002891Y003938D01*
X002891Y003938D01*
X002891Y003938D01*
X002891Y003938D01*
X002891Y003938D01*
X002891Y003938D01*
X002891Y003938D01*
X002892Y003938D01*
X002892Y003939D02*
X002892Y003939D01*
X002892Y003938D01*
X002893Y003937D02*
X002892Y003937D01*
X002893Y003938D02*
X002893Y003938D01*
X002893Y003938D01*
X002893Y003938D01*
X002893Y003939D02*
X002893Y003939D01*
X002894Y003938D02*
X002894Y003938D01*
X002894Y003938D01*
X002894Y003938D01*
X002894Y003938D01*
X002894Y003938D01*
X002894Y003938D01*
X002894Y003938D01*
X002895Y003938D02*
X002895Y003939D01*
X002896Y003938D02*
X002896Y003938D01*
X002896Y003938D01*
X002896Y003938D01*
X002896Y003938D01*
X002897Y003938D01*
X002897Y003938D01*
X002897Y003938D01*
X002898Y003938D01*
X002898Y003938D01*
X002898Y003938D01*
X002897Y003938D01*
X002897Y003938D01*
X002897Y003938D01*
X002897Y003938D01*
X002896Y003938D01*
X002895Y003938D01*
X002895Y003938D01*
X002896Y003938D01*
X002896Y003938D01*
X002897Y003938D02*
X002898Y003938D01*
X002898Y003938D01*
X002899Y003938D01*
X002899Y003938D01*
X002899Y003938D01*
X002898Y003938D01*
X002898Y003939D02*
X002898Y003939D01*
X002900Y003938D02*
X002900Y003939D01*
X002901Y003938D02*
X002901Y003938D01*
X002901Y003938D01*
X002901Y003938D01*
X002901Y003938D01*
X002901Y003938D01*
X002901Y003938D01*
X002901Y003938D01*
X002901Y003938D01*
X002902Y003938D02*
X002902Y003938D01*
X002902Y003938D01*
X002902Y003938D01*
X002902Y003938D01*
X002902Y003938D01*
X002902Y003938D01*
X002902Y003938D01*
X002903Y003938D01*
X002903Y003938D01*
X002903Y003938D01*
X002903Y003938D01*
X002903Y003938D01*
X002903Y003938D01*
X002904Y003938D01*
X002904Y003938D01*
X002904Y003938D01*
X002904Y003939D01*
X002905Y003938D01*
X002903Y003938D02*
X002903Y003938D01*
X002902Y003938D02*
X002902Y003938D01*
X002903Y003938D01*
M02*
