G75*
%MOIN*%
%OFA0B0*%
%FSLAX24Y24*%
%IPPOS*%
%LPD*%
%AMOC8*
5,1,8,0,0,1.08239X$1,22.5*
%
%ADD10C,0.0050*%
%ADD11C,0.0060*%
%ADD12C,0.0040*%
%ADD13R,0.0300X0.0180*%
%ADD14C,0.0100*%
D10*
X000830Y001160D02*
X000875Y001115D01*
X000965Y001115D01*
X001010Y001160D01*
X001010Y001250D01*
X000920Y001250D01*
X000830Y001340D02*
X000830Y001160D01*
X000830Y001340D02*
X000875Y001385D01*
X000965Y001385D01*
X001010Y001340D01*
X001125Y001385D02*
X001125Y001115D01*
X001305Y001115D02*
X001125Y001385D01*
X001150Y001576D02*
X000880Y001576D01*
X000880Y001711D01*
X000925Y001756D01*
X001015Y001756D01*
X001060Y001711D01*
X001060Y001576D01*
X001060Y001666D02*
X001150Y001756D01*
X001150Y001870D02*
X001150Y002051D01*
X001150Y001870D02*
X000880Y001870D01*
X001305Y001385D02*
X001305Y001115D01*
X001419Y001115D02*
X001554Y001115D01*
X001599Y001160D01*
X001599Y001340D01*
X001554Y001385D01*
X001419Y001385D01*
X001419Y001115D01*
X001830Y001115D02*
X001830Y001385D01*
X001965Y001385D01*
X002010Y001340D01*
X002010Y001250D01*
X001965Y001205D01*
X001830Y001205D01*
X001920Y001205D02*
X002010Y001115D01*
X002125Y001115D02*
X002260Y001115D01*
X002305Y001160D01*
X002260Y001205D01*
X002170Y001205D01*
X002125Y001250D01*
X002170Y001295D01*
X002305Y001295D01*
X002419Y001295D02*
X002509Y001385D01*
X002509Y001115D01*
X002419Y001115D02*
X002599Y001115D01*
X002980Y001160D02*
X003025Y001115D01*
X003115Y001115D01*
X003160Y001160D01*
X003160Y001250D01*
X003115Y001295D01*
X003070Y001295D01*
X002980Y001250D01*
X002980Y001385D01*
X003160Y001385D01*
X003275Y001385D02*
X003275Y001205D01*
X003365Y001115D01*
X003455Y001205D01*
X003455Y001385D01*
X001150Y004476D02*
X000880Y004476D01*
X000880Y004611D01*
X000925Y004656D01*
X001015Y004656D01*
X001060Y004611D01*
X001060Y004476D01*
X001060Y004566D02*
X001150Y004656D01*
X001150Y004770D02*
X001150Y004951D01*
X001150Y004860D02*
X000880Y004860D01*
X000970Y004770D01*
X000976Y005095D02*
X000886Y005185D01*
X000931Y005185D02*
X000796Y005185D01*
X000796Y005095D02*
X000796Y005365D01*
X000931Y005365D01*
X000976Y005320D01*
X000976Y005230D01*
X000931Y005185D01*
X001091Y005230D02*
X001136Y005275D01*
X001226Y005275D01*
X001271Y005230D01*
X001271Y005095D01*
X001385Y005095D02*
X001566Y005095D01*
X001475Y005095D02*
X001475Y005365D01*
X001385Y005275D01*
X001091Y005365D02*
X001091Y005095D01*
X001846Y005095D02*
X001846Y005365D01*
X001981Y005365D01*
X002026Y005320D01*
X002026Y005230D01*
X001981Y005185D01*
X001846Y005185D01*
X001936Y005185D02*
X002026Y005095D01*
X002141Y005095D02*
X002141Y005365D01*
X002186Y005275D02*
X002276Y005275D01*
X002321Y005230D01*
X002321Y005095D01*
X002435Y005095D02*
X002616Y005275D01*
X002616Y005320D01*
X002570Y005365D01*
X002480Y005365D01*
X002435Y005320D01*
X002435Y005095D02*
X002616Y005095D01*
X002846Y005095D02*
X002846Y005365D01*
X002981Y005365D01*
X003026Y005320D01*
X003026Y005230D01*
X002981Y005185D01*
X002846Y005185D01*
X002936Y005185D02*
X003026Y005095D01*
X003141Y005095D02*
X003276Y005095D01*
X003321Y005140D01*
X003276Y005185D01*
X003186Y005185D01*
X003141Y005230D01*
X003186Y005275D01*
X003321Y005275D01*
X003435Y005320D02*
X003480Y005365D01*
X003570Y005365D01*
X003616Y005320D01*
X003616Y005275D01*
X003435Y005095D01*
X003616Y005095D01*
X002186Y005275D02*
X002141Y005230D01*
D11*
X001979Y004618D02*
X002531Y004618D01*
X003003Y004618D02*
X003239Y004618D01*
X003239Y003988D01*
X003239Y003525D02*
X003239Y003447D01*
X003239Y003033D02*
X003239Y002955D01*
X003239Y002492D02*
X003239Y001862D01*
X003003Y001862D01*
X002531Y001862D02*
X001979Y001862D01*
X001507Y001862D02*
X001271Y001862D01*
X001271Y002492D01*
X001271Y002955D02*
X001271Y003033D01*
X001271Y003447D02*
X001271Y003525D01*
X001271Y003988D02*
X001271Y004618D01*
X001507Y004618D01*
X003785Y004708D02*
X003841Y004652D01*
X004068Y004652D01*
X004125Y004708D01*
X004125Y004822D01*
X004068Y004879D01*
X003841Y004879D01*
X003785Y004822D01*
X003785Y004708D01*
X003841Y004510D02*
X003785Y004454D01*
X003785Y004340D01*
X003841Y004283D01*
X004068Y004283D01*
X004125Y004340D01*
X004125Y004454D01*
X004068Y004510D01*
D12*
X004002Y005460D02*
X004135Y005527D01*
X004002Y005593D01*
X004002Y005681D02*
X003935Y005748D01*
X004135Y005748D01*
X004135Y005814D02*
X004135Y005681D01*
X004135Y005902D02*
X004135Y005935D01*
X004102Y005935D01*
X004102Y005902D01*
X004135Y005902D01*
X004102Y006012D02*
X003968Y006146D01*
X004102Y006146D01*
X004135Y006113D01*
X004135Y006046D01*
X004102Y006012D01*
X003968Y006012D01*
X003935Y006046D01*
X003935Y006113D01*
X003968Y006146D01*
D13*
X000555Y004690D03*
X000555Y001790D03*
D14*
X000666Y003640D02*
X000666Y003840D01*
M02*
