G75*
%MOIN*%
%OFA0B0*%
%FSLAX24Y24*%
%IPPOS*%
%LPD*%
%AMOC8*
5,1,8,0,0,1.08239X$1,22.5*
%
%ADD10R,0.0500X0.0250*%
%ADD11C,0.0100*%
%ADD12C,0.0740*%
%ADD13C,0.0160*%
%ADD14C,0.0400*%
D10*
X005278Y001678D03*
X005278Y001998D03*
X006278Y001998D03*
X006278Y001678D03*
X009553Y001678D03*
X009553Y001998D03*
X010553Y001998D03*
X010553Y001678D03*
X013829Y001678D03*
X013829Y001998D03*
X014829Y001998D03*
X014829Y001678D03*
X018105Y001678D03*
X018105Y001998D03*
X019105Y001998D03*
X019105Y001678D03*
X022380Y001678D03*
X022380Y001998D03*
X023380Y001998D03*
X023380Y001678D03*
X026656Y001678D03*
X026656Y001998D03*
X027656Y001998D03*
X027656Y001678D03*
X030931Y001678D03*
X030931Y001998D03*
X031931Y001998D03*
X031931Y001678D03*
X035207Y001678D03*
X035207Y001998D03*
X036207Y001998D03*
X036207Y001678D03*
X036207Y008153D03*
X036207Y008473D03*
X035207Y008473D03*
X035207Y008153D03*
X031931Y008153D03*
X031931Y008473D03*
X030931Y008473D03*
X030931Y008153D03*
X027656Y008153D03*
X027656Y008473D03*
X026656Y008473D03*
X026656Y008153D03*
X023380Y008153D03*
X023380Y008473D03*
X022380Y008473D03*
X022380Y008153D03*
X019105Y008153D03*
X019105Y008473D03*
X018105Y008473D03*
X018105Y008153D03*
X014829Y008153D03*
X014829Y008473D03*
X013829Y008473D03*
X013829Y008153D03*
X010553Y008153D03*
X010553Y008473D03*
X009553Y008473D03*
X009553Y008153D03*
X006278Y008153D03*
X006278Y008473D03*
X005278Y008473D03*
X005278Y008153D03*
X005278Y014629D03*
X005278Y014949D03*
X006278Y014949D03*
X006278Y014629D03*
X009553Y014629D03*
X009553Y014949D03*
X010553Y014949D03*
X010553Y014629D03*
X013829Y014629D03*
X013829Y014949D03*
X014829Y014949D03*
X014829Y014629D03*
X018105Y014629D03*
X018105Y014949D03*
X019105Y014949D03*
X019105Y014629D03*
X022380Y014629D03*
X022380Y014949D03*
X023380Y014949D03*
X023380Y014629D03*
X026656Y014629D03*
X026656Y014949D03*
X027656Y014949D03*
X027656Y014629D03*
X030931Y014629D03*
X030931Y014949D03*
X031931Y014949D03*
X031931Y014629D03*
X035207Y014629D03*
X035207Y014949D03*
X036207Y014949D03*
X036207Y014629D03*
X036207Y021104D03*
X036207Y021425D03*
X035207Y021425D03*
X035207Y021104D03*
X031931Y021104D03*
X031931Y021425D03*
X030931Y021425D03*
X030931Y021104D03*
X027656Y021104D03*
X027656Y021425D03*
X026656Y021425D03*
X026656Y021104D03*
X023380Y021104D03*
X023380Y021425D03*
X022380Y021425D03*
X022380Y021104D03*
X019105Y021104D03*
X019105Y021425D03*
X018105Y021425D03*
X018105Y021104D03*
X014829Y021104D03*
X014829Y021425D03*
X013829Y021425D03*
X013829Y021104D03*
X010553Y021104D03*
X010553Y021425D03*
X009553Y021425D03*
X009553Y021104D03*
X006278Y021104D03*
X006278Y021425D03*
X005278Y021425D03*
X005278Y021104D03*
D11*
X005278Y021117D02*
X005278Y021417D01*
X006278Y021417D02*
X006278Y021117D01*
X009553Y021117D02*
X009553Y021417D01*
X010553Y021417D02*
X010553Y021117D01*
X013829Y021117D02*
X013829Y021417D01*
X014829Y021417D02*
X014829Y021117D01*
X018105Y021117D02*
X018105Y021417D01*
X019105Y021417D02*
X019105Y021117D01*
X022380Y021117D02*
X022380Y021417D01*
X023380Y021417D02*
X023380Y021117D01*
X026656Y021117D02*
X026656Y021417D01*
X027656Y021417D02*
X027656Y021117D01*
X030931Y021117D02*
X030931Y021417D01*
X031931Y021417D02*
X031931Y021117D01*
X035207Y021117D02*
X035207Y021417D01*
X036207Y021417D02*
X036207Y021117D01*
X036207Y014941D02*
X036207Y014641D01*
X035207Y014641D02*
X035207Y014941D01*
X031931Y014941D02*
X031931Y014641D01*
X030931Y014641D02*
X030931Y014941D01*
X027656Y014941D02*
X027656Y014641D01*
X026656Y014641D02*
X026656Y014941D01*
X023380Y014941D02*
X023380Y014641D01*
X022380Y014641D02*
X022380Y014941D01*
X019105Y014941D02*
X019105Y014641D01*
X018105Y014641D02*
X018105Y014941D01*
X014829Y014941D02*
X014829Y014641D01*
X013829Y014641D02*
X013829Y014941D01*
X010553Y014941D02*
X010553Y014641D01*
X009553Y014641D02*
X009553Y014941D01*
X006278Y014941D02*
X006278Y014641D01*
X005278Y014641D02*
X005278Y014941D01*
X005278Y008466D02*
X005278Y008166D01*
X006278Y008166D02*
X006278Y008466D01*
X009553Y008466D02*
X009553Y008166D01*
X010553Y008166D02*
X010553Y008466D01*
X013829Y008466D02*
X013829Y008166D01*
X014829Y008166D02*
X014829Y008466D01*
X018105Y008466D02*
X018105Y008166D01*
X019105Y008166D02*
X019105Y008466D01*
X022380Y008466D02*
X022380Y008166D01*
X023380Y008166D02*
X023380Y008466D01*
X026656Y008466D02*
X026656Y008166D01*
X027656Y008166D02*
X027656Y008466D01*
X030931Y008466D02*
X030931Y008166D01*
X031931Y008166D02*
X031931Y008466D01*
X035207Y008466D02*
X035207Y008166D01*
X036207Y008166D02*
X036207Y008466D01*
X036207Y001990D02*
X036207Y001690D01*
X035207Y001690D02*
X035207Y001990D01*
X031931Y001990D02*
X031931Y001690D01*
X030931Y001690D02*
X030931Y001990D01*
X027656Y001990D02*
X027656Y001690D01*
X026656Y001690D02*
X026656Y001990D01*
X023380Y001990D02*
X023380Y001690D01*
X022380Y001690D02*
X022380Y001990D01*
X019105Y001990D02*
X019105Y001690D01*
X018105Y001690D02*
X018105Y001990D01*
X014829Y001990D02*
X014829Y001690D01*
X013829Y001690D02*
X013829Y001990D01*
X010553Y001990D02*
X010553Y001690D01*
X009553Y001690D02*
X009553Y001990D01*
X006278Y001990D02*
X006278Y001690D01*
X005278Y001690D02*
X005278Y001990D01*
D12*
X005778Y000640D03*
X004778Y000640D03*
X003778Y000640D03*
X008053Y000640D03*
X009053Y000640D03*
X010053Y000640D03*
X012329Y000640D03*
X013329Y000640D03*
X014329Y000640D03*
X016605Y000640D03*
X017605Y000640D03*
X018605Y000640D03*
X020880Y000640D03*
X021880Y000640D03*
X022880Y000640D03*
X025156Y000640D03*
X026156Y000640D03*
X027156Y000640D03*
X029431Y000640D03*
X030431Y000640D03*
X031431Y000640D03*
X033707Y000640D03*
X034707Y000640D03*
X035707Y000640D03*
X035707Y005840D03*
X034707Y005840D03*
X033707Y005840D03*
X033707Y007116D03*
X034707Y007116D03*
X035707Y007116D03*
X031431Y007116D03*
X030431Y007116D03*
X029431Y007116D03*
X029431Y005840D03*
X030431Y005840D03*
X031431Y005840D03*
X027156Y005840D03*
X026156Y005840D03*
X025156Y005840D03*
X025156Y007116D03*
X026156Y007116D03*
X027156Y007116D03*
X022880Y007116D03*
X021880Y007116D03*
X020880Y007116D03*
X020880Y005840D03*
X021880Y005840D03*
X022880Y005840D03*
X018605Y005840D03*
X017605Y005840D03*
X016605Y005840D03*
X016605Y007116D03*
X017605Y007116D03*
X018605Y007116D03*
X014329Y007116D03*
X013329Y007116D03*
X012329Y007116D03*
X012329Y005840D03*
X013329Y005840D03*
X014329Y005840D03*
X010053Y005840D03*
X009053Y005840D03*
X008053Y005840D03*
X008053Y007116D03*
X009053Y007116D03*
X010053Y007116D03*
X005778Y007116D03*
X004778Y007116D03*
X003778Y007116D03*
X003778Y005840D03*
X004778Y005840D03*
X005778Y005840D03*
X005778Y012316D03*
X004778Y012316D03*
X003778Y012316D03*
X003778Y013591D03*
X004778Y013591D03*
X005778Y013591D03*
X008053Y013591D03*
X009053Y013591D03*
X010053Y013591D03*
X010053Y012316D03*
X009053Y012316D03*
X008053Y012316D03*
X012329Y012316D03*
X013329Y012316D03*
X014329Y012316D03*
X014329Y013591D03*
X013329Y013591D03*
X012329Y013591D03*
X016605Y013591D03*
X017605Y013591D03*
X018605Y013591D03*
X018605Y012316D03*
X017605Y012316D03*
X016605Y012316D03*
X020880Y012316D03*
X021880Y012316D03*
X022880Y012316D03*
X022880Y013591D03*
X021880Y013591D03*
X020880Y013591D03*
X025156Y013591D03*
X026156Y013591D03*
X027156Y013591D03*
X027156Y012316D03*
X026156Y012316D03*
X025156Y012316D03*
X029431Y012316D03*
X030431Y012316D03*
X031431Y012316D03*
X031431Y013591D03*
X030431Y013591D03*
X029431Y013591D03*
X033707Y013591D03*
X034707Y013591D03*
X035707Y013591D03*
X035707Y012316D03*
X034707Y012316D03*
X033707Y012316D03*
X033707Y018791D03*
X034707Y018791D03*
X035707Y018791D03*
X035707Y020067D03*
X034707Y020067D03*
X033707Y020067D03*
X031431Y020067D03*
X030431Y020067D03*
X029431Y020067D03*
X029431Y018791D03*
X030431Y018791D03*
X031431Y018791D03*
X027156Y018791D03*
X026156Y018791D03*
X025156Y018791D03*
X025156Y020067D03*
X026156Y020067D03*
X027156Y020067D03*
X022880Y020067D03*
X021880Y020067D03*
X020880Y020067D03*
X020880Y018791D03*
X021880Y018791D03*
X022880Y018791D03*
X018605Y018791D03*
X017605Y018791D03*
X016605Y018791D03*
X016605Y020067D03*
X017605Y020067D03*
X018605Y020067D03*
X014329Y020067D03*
X013329Y020067D03*
X012329Y020067D03*
X012329Y018791D03*
X013329Y018791D03*
X014329Y018791D03*
X010053Y018791D03*
X009053Y018791D03*
X008053Y018791D03*
X008053Y020067D03*
X009053Y020067D03*
X010053Y020067D03*
X005778Y020067D03*
X004778Y020067D03*
X003778Y020067D03*
X003778Y018791D03*
X004778Y018791D03*
X005778Y018791D03*
X005778Y025267D03*
X004778Y025267D03*
X003778Y025267D03*
X008053Y025267D03*
X009053Y025267D03*
X010053Y025267D03*
X012329Y025267D03*
X013329Y025267D03*
X014329Y025267D03*
X016605Y025267D03*
X017605Y025267D03*
X018605Y025267D03*
X020880Y025267D03*
X021880Y025267D03*
X022880Y025267D03*
X025156Y025267D03*
X026156Y025267D03*
X027156Y025267D03*
X029431Y025267D03*
X030431Y025267D03*
X031431Y025267D03*
X033707Y025267D03*
X034707Y025267D03*
X035707Y025267D03*
D13*
X003278Y000640D02*
X003078Y000840D01*
X003078Y005640D01*
X003278Y007116D02*
X003778Y007116D01*
X003278Y007116D02*
X003078Y007316D01*
X003078Y012116D01*
X003278Y013591D02*
X003778Y013591D01*
X003278Y013591D02*
X003078Y013791D01*
X003078Y018591D01*
X003278Y020067D02*
X003778Y020067D01*
X003278Y020067D02*
X003078Y020267D01*
X003078Y025067D01*
X005778Y025267D02*
X006278Y024767D01*
X006278Y021425D01*
X006278Y021104D02*
X005278Y021104D01*
X005278Y021425D02*
X005278Y021967D01*
X005078Y022167D01*
X006278Y021104D02*
X006278Y020567D01*
X005778Y020067D01*
X007353Y020267D02*
X007553Y020067D01*
X008053Y020067D01*
X007353Y020267D02*
X007353Y025067D01*
X010053Y025267D02*
X010553Y024767D01*
X010553Y021425D01*
X010553Y021104D02*
X009553Y021104D01*
X009553Y021425D02*
X009553Y021967D01*
X009353Y022167D01*
X010553Y021104D02*
X010553Y020567D01*
X010053Y020067D01*
X011629Y020267D02*
X011829Y020067D01*
X012329Y020067D01*
X011629Y020267D02*
X011629Y025067D01*
X014329Y025267D02*
X014829Y024767D01*
X014829Y021425D01*
X014829Y021104D02*
X013829Y021104D01*
X013829Y021425D02*
X013829Y021967D01*
X013629Y022167D01*
X014829Y021104D02*
X014829Y020567D01*
X014329Y020067D01*
X015905Y020267D02*
X016105Y020067D01*
X016605Y020067D01*
X015905Y020267D02*
X015905Y025067D01*
X018605Y025267D02*
X019105Y024767D01*
X019105Y021425D01*
X019105Y021104D02*
X018105Y021104D01*
X018105Y021425D02*
X018105Y021967D01*
X017905Y022167D01*
X019105Y021104D02*
X019105Y020567D01*
X018605Y020067D01*
X020180Y020267D02*
X020380Y020067D01*
X020880Y020067D01*
X020180Y020267D02*
X020180Y025067D01*
X022880Y025267D02*
X023380Y024767D01*
X023380Y021425D01*
X023380Y021104D02*
X022380Y021104D01*
X022380Y021425D02*
X022380Y021967D01*
X022180Y022167D01*
X023380Y021104D02*
X023380Y020567D01*
X022880Y020067D01*
X024456Y020267D02*
X024656Y020067D01*
X025156Y020067D01*
X024456Y020267D02*
X024456Y025067D01*
X027156Y025267D02*
X027656Y024767D01*
X027656Y021425D01*
X027656Y021104D02*
X026656Y021104D01*
X026656Y021425D02*
X026656Y021967D01*
X026456Y022167D01*
X027656Y021104D02*
X027656Y020567D01*
X027156Y020067D01*
X028731Y020267D02*
X028931Y020067D01*
X029431Y020067D01*
X028731Y020267D02*
X028731Y025067D01*
X031431Y025267D02*
X031931Y024767D01*
X031931Y021425D01*
X031931Y021104D02*
X030931Y021104D01*
X030931Y021425D02*
X030931Y021967D01*
X030731Y022167D01*
X031931Y021104D02*
X031931Y020567D01*
X031431Y020067D01*
X033007Y020267D02*
X033207Y020067D01*
X033707Y020067D01*
X033007Y020267D02*
X033007Y025067D01*
X035707Y025267D02*
X036207Y024767D01*
X036207Y021425D01*
X036207Y021104D02*
X035207Y021104D01*
X035207Y021425D02*
X035207Y021967D01*
X035007Y022167D01*
X036207Y021104D02*
X036207Y020567D01*
X035707Y020067D01*
X035707Y018791D02*
X036207Y018291D01*
X036207Y014949D01*
X036207Y014629D02*
X035207Y014629D01*
X035207Y014949D02*
X035207Y015491D01*
X035007Y015691D01*
X036207Y014629D02*
X036207Y014091D01*
X035707Y013591D01*
X035707Y012316D02*
X036207Y011816D01*
X036207Y008473D01*
X036207Y008153D02*
X035207Y008153D01*
X035207Y008473D02*
X035207Y009016D01*
X035007Y009216D01*
X036207Y008153D02*
X036207Y007616D01*
X035707Y007116D01*
X035707Y005840D02*
X036207Y005340D01*
X036207Y001998D01*
X036207Y001678D02*
X035207Y001678D01*
X035207Y001998D02*
X035207Y002540D01*
X035007Y002740D01*
X036207Y001678D02*
X036207Y001140D01*
X035707Y000640D01*
X033707Y000640D02*
X033207Y000640D01*
X033007Y000840D01*
X033007Y005640D01*
X031931Y005340D02*
X031431Y005840D01*
X031931Y005340D02*
X031931Y001998D01*
X031931Y001678D02*
X030931Y001678D01*
X030931Y001998D02*
X030931Y002540D01*
X030731Y002740D01*
X031931Y001678D02*
X031931Y001140D01*
X031431Y000640D01*
X029431Y000640D02*
X028931Y000640D01*
X028731Y000840D01*
X028731Y005640D01*
X027656Y005340D02*
X027156Y005840D01*
X027656Y005340D02*
X027656Y001998D01*
X027656Y001678D02*
X026656Y001678D01*
X026656Y001998D02*
X026656Y002540D01*
X026456Y002740D01*
X027656Y001678D02*
X027656Y001140D01*
X027156Y000640D01*
X025156Y000640D02*
X024656Y000640D01*
X024456Y000840D01*
X024456Y005640D01*
X023380Y005340D02*
X022880Y005840D01*
X023380Y005340D02*
X023380Y001998D01*
X023380Y001678D02*
X022380Y001678D01*
X022380Y001998D02*
X022380Y002540D01*
X022180Y002740D01*
X023380Y001678D02*
X023380Y001140D01*
X022880Y000640D01*
X020880Y000640D02*
X020380Y000640D01*
X020180Y000840D01*
X020180Y005640D01*
X019105Y005340D02*
X018605Y005840D01*
X019105Y005340D02*
X019105Y001998D01*
X019105Y001678D02*
X018105Y001678D01*
X018105Y001998D02*
X018105Y002540D01*
X017905Y002740D01*
X019105Y001678D02*
X019105Y001140D01*
X018605Y000640D01*
X016605Y000640D02*
X016105Y000640D01*
X015905Y000840D01*
X015905Y005640D01*
X014829Y005340D02*
X014329Y005840D01*
X014829Y005340D02*
X014829Y001998D01*
X014829Y001678D02*
X013829Y001678D01*
X013829Y001998D02*
X013829Y002540D01*
X013629Y002740D01*
X014829Y001678D02*
X014829Y001140D01*
X014329Y000640D01*
X012329Y000640D02*
X011829Y000640D01*
X011629Y000840D01*
X011629Y005640D01*
X010553Y005340D02*
X010053Y005840D01*
X010553Y005340D02*
X010553Y001998D01*
X010553Y001678D02*
X009553Y001678D01*
X009553Y001998D02*
X009553Y002540D01*
X009353Y002740D01*
X010553Y001678D02*
X010553Y001140D01*
X010053Y000640D01*
X008053Y000640D02*
X007553Y000640D01*
X007353Y000840D01*
X007353Y005640D01*
X006278Y005340D02*
X005778Y005840D01*
X006278Y005340D02*
X006278Y001998D01*
X006278Y001678D02*
X005278Y001678D01*
X005278Y001998D02*
X005278Y002540D01*
X005078Y002740D01*
X006278Y001678D02*
X006278Y001140D01*
X005778Y000640D01*
X003778Y000640D02*
X003278Y000640D01*
X005778Y007116D02*
X006278Y007616D01*
X006278Y008153D01*
X005278Y008153D01*
X005278Y008473D02*
X005278Y009016D01*
X005078Y009216D01*
X006278Y008473D02*
X006278Y011816D01*
X005778Y012316D01*
X007353Y012116D02*
X007353Y007316D01*
X007553Y007116D01*
X008053Y007116D01*
X009553Y008153D02*
X010553Y008153D01*
X010553Y007616D01*
X010053Y007116D01*
X011629Y007316D02*
X011829Y007116D01*
X012329Y007116D01*
X011629Y007316D02*
X011629Y012116D01*
X010553Y011816D02*
X010053Y012316D01*
X010553Y011816D02*
X010553Y008473D01*
X009553Y008473D02*
X009553Y009016D01*
X009353Y009216D01*
X013629Y009216D02*
X013829Y009016D01*
X013829Y008473D01*
X013829Y008153D02*
X014829Y008153D01*
X014829Y007616D01*
X014329Y007116D01*
X015905Y007316D02*
X016105Y007116D01*
X016605Y007116D01*
X015905Y007316D02*
X015905Y012116D01*
X014829Y011816D02*
X014329Y012316D01*
X014829Y011816D02*
X014829Y008473D01*
X017905Y009216D02*
X018105Y009016D01*
X018105Y008473D01*
X018105Y008153D02*
X019105Y008153D01*
X019105Y007616D01*
X018605Y007116D01*
X020180Y007316D02*
X020380Y007116D01*
X020880Y007116D01*
X020180Y007316D02*
X020180Y012116D01*
X019105Y011816D02*
X018605Y012316D01*
X019105Y011816D02*
X019105Y008473D01*
X022180Y009216D02*
X022380Y009016D01*
X022380Y008473D01*
X022380Y008153D02*
X023380Y008153D01*
X023380Y007616D01*
X022880Y007116D01*
X024456Y007316D02*
X024656Y007116D01*
X025156Y007116D01*
X024456Y007316D02*
X024456Y012116D01*
X023380Y011816D02*
X022880Y012316D01*
X023380Y011816D02*
X023380Y008473D01*
X026456Y009216D02*
X026656Y009016D01*
X026656Y008473D01*
X026656Y008153D02*
X027656Y008153D01*
X027656Y007616D01*
X027156Y007116D01*
X028731Y007316D02*
X028931Y007116D01*
X029431Y007116D01*
X028731Y007316D02*
X028731Y012116D01*
X027656Y011816D02*
X027156Y012316D01*
X027656Y011816D02*
X027656Y008473D01*
X030731Y009216D02*
X030931Y009016D01*
X030931Y008473D01*
X030931Y008153D02*
X031931Y008153D01*
X031931Y007616D01*
X031431Y007116D01*
X033007Y007316D02*
X033207Y007116D01*
X033707Y007116D01*
X033007Y007316D02*
X033007Y012116D01*
X031931Y011816D02*
X031431Y012316D01*
X031931Y011816D02*
X031931Y008473D01*
X031431Y013591D02*
X031931Y014091D01*
X031931Y014629D01*
X030931Y014629D01*
X030931Y014949D02*
X030931Y015491D01*
X030731Y015691D01*
X031931Y014949D02*
X031931Y018291D01*
X031431Y018791D01*
X033007Y018591D02*
X033007Y013791D01*
X033207Y013591D01*
X033707Y013591D01*
X029431Y013591D02*
X028931Y013591D01*
X028731Y013791D01*
X028731Y018591D01*
X027656Y018291D02*
X027156Y018791D01*
X027656Y018291D02*
X027656Y014949D01*
X027656Y014629D02*
X026656Y014629D01*
X026656Y014949D02*
X026656Y015491D01*
X026456Y015691D01*
X027656Y014629D02*
X027656Y014091D01*
X027156Y013591D01*
X025156Y013591D02*
X024656Y013591D01*
X024456Y013791D01*
X024456Y018591D01*
X023380Y018291D02*
X022880Y018791D01*
X023380Y018291D02*
X023380Y014949D01*
X023380Y014629D02*
X022380Y014629D01*
X022380Y014949D02*
X022380Y015491D01*
X022180Y015691D01*
X023380Y014629D02*
X023380Y014091D01*
X022880Y013591D01*
X020880Y013591D02*
X020380Y013591D01*
X020180Y013791D01*
X020180Y018591D01*
X019105Y018291D02*
X018605Y018791D01*
X019105Y018291D02*
X019105Y014949D01*
X019105Y014629D02*
X018105Y014629D01*
X018105Y014949D02*
X018105Y015491D01*
X017905Y015691D01*
X019105Y014629D02*
X019105Y014091D01*
X018605Y013591D01*
X016605Y013591D02*
X016105Y013591D01*
X015905Y013791D01*
X015905Y018591D01*
X014829Y018291D02*
X014329Y018791D01*
X014829Y018291D02*
X014829Y014949D01*
X014829Y014629D02*
X013829Y014629D01*
X013829Y014949D02*
X013829Y015491D01*
X013629Y015691D01*
X014829Y014629D02*
X014829Y014091D01*
X014329Y013591D01*
X012329Y013591D02*
X011829Y013591D01*
X011629Y013791D01*
X011629Y018591D01*
X010553Y018291D02*
X010053Y018791D01*
X010553Y018291D02*
X010553Y014949D01*
X010553Y014629D02*
X009553Y014629D01*
X009553Y014949D02*
X009553Y015491D01*
X009353Y015691D01*
X010553Y014629D02*
X010553Y014091D01*
X010053Y013591D01*
X008053Y013591D02*
X007553Y013591D01*
X007353Y013791D01*
X007353Y018591D01*
X006278Y018291D02*
X005778Y018791D01*
X006278Y018291D02*
X006278Y014949D01*
X006278Y014629D02*
X005278Y014629D01*
X005278Y014949D02*
X005278Y015491D01*
X005078Y015691D01*
X006278Y014629D02*
X006278Y014091D01*
X005778Y013591D01*
D14*
X007353Y012116D03*
X009353Y009216D03*
X011629Y012116D03*
X013629Y009216D03*
X015905Y012116D03*
X017905Y009216D03*
X020180Y012116D03*
X024456Y012116D03*
X026456Y009216D03*
X030731Y009216D03*
X028731Y012116D03*
X033007Y012116D03*
X035007Y009216D03*
X033007Y005640D03*
X035007Y002740D03*
X030731Y002740D03*
X026456Y002740D03*
X024456Y005640D03*
X020180Y005640D03*
X022180Y002740D03*
X017905Y002740D03*
X015905Y005640D03*
X013629Y002740D03*
X011629Y005640D03*
X009353Y002740D03*
X007353Y005640D03*
X005078Y002740D03*
X003078Y005640D03*
X005078Y009216D03*
X003078Y012116D03*
X005078Y015691D03*
X003078Y018591D03*
X007353Y018591D03*
X009353Y015691D03*
X011629Y018591D03*
X013629Y015691D03*
X015905Y018591D03*
X017905Y015691D03*
X020180Y018591D03*
X024456Y018591D03*
X026456Y015691D03*
X030731Y015691D03*
X028731Y018591D03*
X033007Y018591D03*
X035007Y015691D03*
X035007Y022167D03*
X033007Y025067D03*
X030731Y022167D03*
X026456Y022167D03*
X024456Y025067D03*
X020180Y025067D03*
X022180Y022167D03*
X017905Y022167D03*
X015905Y025067D03*
X013629Y022167D03*
X011629Y025067D03*
X009353Y022167D03*
X007353Y025067D03*
X005078Y022167D03*
X003078Y025067D03*
X022180Y015691D03*
X022180Y009216D03*
X028731Y005640D03*
X028731Y025067D03*
M02*
